<svg id="_0428_apple" xmlns="http://www.w3.org/2000/svg" xmlns:xlink="http://www.w3.org/1999/xlink" viewBox="0 0 500 500" data-imageid="apple-100" imageName="Apple" class="illustrations_image" style="width: 157px;"><defs><style>.cls-1_apple-100{fill:url(#linear-gradient);}.cls-1_apple-100,.cls-2_apple-100,.cls-3_apple-100,.cls-4_apple-100,.cls-5_apple-100,.cls-6_apple-100,.cls-7_apple-100,.cls-8_apple-100{stroke-width:0px;}.cls-2_apple-100{opacity:.18;}.cls-2_apple-100,.cls-3_apple-100,.cls-4_apple-100{isolation:isolate;}.cls-2_apple-100,.cls-8_apple-100{fill:#68e1fd;}.cls-3_apple-100{fill:url(#linear-gradient-2-apple-100);}.cls-3_apple-100,.cls-4_apple-100{opacity:.23;}.cls-4_apple-100{fill:url(#linear-gradient-3-apple-100);}.cls-5_apple-100{fill:url(#linear-gradient-4-apple-100);}.cls-6_apple-100{fill:url(#linear-gradient-5-apple-100);}.cls-7_apple-100{fill:#fff;}</style><linearGradient id="linear-gradient-apple-100" x1="721.55" y1="1815.32" x2="730.2" y2="1981.35" gradientTransform="translate(-471 2323.65) scale(1 -1)" gradientUnits="userSpaceOnUse"><stop offset="0" stop-color="#231f20"/><stop offset=".13" stop-color="#231f20" stop-opacity=".69"/><stop offset="1" stop-color="#231f20" stop-opacity="0"/></linearGradient><linearGradient id="linear-gradient-2-apple-100" x1="811.61" y1="2076.23" x2="784.06" y2="2268.23" gradientTransform="translate(-507.29 2283.98) scale(1 -1)" xlink:href="#linear-gradient-apple-100"/><linearGradient id="linear-gradient-3-apple-100" x1="745.91" y1="2176.06" x2="829.67" y2="2176.06" gradientTransform="translate(-507.29 2283.98) scale(1 -1)" xlink:href="#linear-gradient-apple-100"/><linearGradient id="linear-gradient-4-apple-100" x1="870.83" y1="2200.33" x2="797.65" y2="1986.67" gradientTransform="translate(-507.29 2283.98) scale(1 -1)" gradientUnits="userSpaceOnUse"><stop offset="0" stop-color="#fff"/><stop offset=".13" stop-color="#fff" stop-opacity=".69"/><stop offset="1" stop-color="#fff" stop-opacity="0"/></linearGradient><linearGradient id="linear-gradient-5-apple-100" x1="239.84" y1="1334" x2="755.35" y2="2035.67" gradientTransform="translate(-507.29 2283.98) scale(1 -1)" xlink:href="#linear-gradient-apple-100"/></defs><g id="background_apple-100"><path class="cls-2_apple-100 targetColor" d="M239.36,20.86c-24.22,4.79-48.46,11.35-69.77,23.76-46.95,27.47-73.59,79.42-114.04,115.79-12.58,11.32-26.7,21.31-36.47,35.15C5.28,215.12,1.75,239.91.02,263.75c-3.86,53.23,1.68,112.58,40.18,149.53,31.25,29.99,77.61,38.29,120.92,37.33,43.31-.96,86.35-9.7,129.61-7.76,26.86,1.22,53.72,6.54,80.44,3.65,46.59-5.04,89.3-36.93,107.35-80.16,8.11-19.37,11.44-40.36,14.2-61.18,6.5-49.22,9.96-99.8-1.65-148.13C463.09,40.72,348.43-.7,239.36,20.86Z" style="fill: rgb(32, 200, 48);"/><ellipse class="cls-1_apple-100" cx="257.3" cy="378.76" rx="172.33" ry="17.02"/></g><g id="apple_apple-100"><path class="cls-8_apple-100 targetColor" d="M387.15,262.38c0,49.94-19.19,89.06-57.18,110.5-11.18,6.21-23.2,10.78-35.68,13.57-10.59,2.46-36.25-4.19-47.61-4.19s-30.03,8.38-45.57,8.06c-63.74-1.36-94.93-63.83-94.93-127.93,0-34.87,3.07-67.78,24.37-88.86,8.02-7.76,17.72-13.56,28.35-16.94,21.19-7.2,42.93,14.37,77.12,13.14,28.26-1.01,48.78-15.37,73.44-12.84,56.32,5.7,77.68,56.4,77.68,105.51Z" style="fill: rgb(32, 200, 48);"/><path class="cls-8_apple-100 targetColor" d="M244.92,96.55c6.78-17.43,19.56-32.71,36.22-41.2,18.08-9.2,39.13-9.99,59.39-10.62-12.03,15.18-10.47,36.57-13.97,55.62-3.62,19.34-13.75,38.09-30.25,48.83-15.85,10.31-39.53,14.59-58.19,12.58.57-21.38-1.13-44.75,6.81-65.2Z" style="fill: rgb(32, 200, 48);"/><path class="cls-3_apple-100" d="M244.92,96.55c6.78-17.43,19.56-32.71,36.22-41.2,18.08-9.2,39.13-9.99,59.39-10.62-12.03,15.18-10.47,36.57-13.97,55.62-3.62,19.34-13.75,38.09-30.25,48.83-15.85,10.31-39.53,14.59-58.19,12.58.57-21.38-1.13-44.75,6.81-65.2Z"/><path class="cls-4_apple-100" d="M264.09,124.13c1.43-2.89,3.24-5.58,5.39-7.98,11.03-11.77,31.27-9.61,43.32-20.4-8.03,5.69-17.35,9.29-27.12,10.47-5.38.63-11.33.73-15.37,4.36,3.13-10.37,10.42-18.92,17.82-26.83,5.83-6.26,11.85-12.32,18.04-18.17,4.71-4.46,9.85-9,16.21-10.29-12.48-.21-24.3,6.43-32.95,15.37-8.65,8.94-14.6,20.18-20.21,31.33s-11.07,22.51-18.99,32.14c-2.58,2.88-4.95,5.94-7.1,9.15-2.15,3.52-5.59,10.47-4.19,14.7,1.55,4.7,2.63,2.08,3.73-1.15,1.07-3.48,2.72-6.76,4.88-9.7,2.79-3.66,6.54-6.58,9.38-10.24s4.89-8.45,7.17-12.77Z"/><path class="cls-7_apple-100" d="M228.43,155.27c-.2-4.81-.81-9.6-1.82-14.31-1.96-8.05-6.18-15.37-10.7-22.36-2.44-3.99-5.34-7.69-8.65-11-5.59-5.24-12.67-8.38-19.79-11.18,2.55-3.54,5.78-6.54,9.5-8.82.42-.29.9-.48,1.4-.56.56,0,1.12.13,1.62.39,13.97,5.95,26.1,16.45,33.01,29.95,7.98,15.64,8.52,33.87,8.9,51.43.12.93-.08,1.87-.57,2.67-.48.51-1.09.87-1.76,1.05-2.96.96-10.31,2.1-10.91-1.89-.29-2.03.35-4.72.29-6.83-.11-2.82-.32-5.69-.52-8.54Z"/><path class="cls-5_apple-100" d="M274.62,197.19c1.02,4.81,4.42,8.71,7.83,12.24,13.42,13.97,29.16,26.15,38.69,42.99,3.21,5.69,5.76,11.95,10.44,16.5s12.48,6.88,17.79,3.05c4.71-3.41,5.59-9.98,5.69-15.79.35-16.25-1.94-32.74-8.31-47.71-5.72-13.43-18.5-34.94-34.94-36.33-13.92-1.17-41.17,6.29-37.19,25.06Z"/><path class="cls-6_apple-100" d="M329.97,372.88c-11.18,6.21-23.2,10.78-35.68,13.57-10.59,2.46-36.25-4.19-47.61-4.19s-30.03,8.38-45.57,8.06c-63.74-1.36-94.93-63.83-94.93-127.93,0-34.87,3.07-67.78,24.37-88.86,12.72,2.47,24.62,8.07,34.63,16.29,2.24,1.84,4.51,4.05,4.9,6.99s-.99,5.3-2.31,7.69l-22.79,40.99c-2.25,4.05-4.54,8.22-5.18,12.8-.34,3.54-.13,7.11.64,10.58,3.32,18.17,10.23,35.5,20.32,50.98,5.03,7.69,11.1,15.11,19.37,19.1,7.2,3.48,15.44,4.07,23.43,3.8,22.46-.73,45.28-7.62,67.08-1.98,14.87,3.86,27.6,13.05,41.03,20.14,6.39,3.31,13.82,6.44,18.29,11.99Z"/></g></svg>