<svg version="1.1" id="Layer_1" xmlns="http://www.w3.org/2000/svg" xmlns:xlink="http://www.w3.org/1999/xlink" x="0px" y="0px" viewBox="0 0 500 500" style="width: 157px;" xml:space="preserve" data-imageid="apple-59" imageName="Apple" class="illustrations_image">
<style type="text/css">
	.st0_apple-59{fill:#D1D3D4;}
	.st1_apple-59{fill:#68E1FD;}
	.st2_apple-59{fill:#231F20;}
	.st3_apple-59{fill:#FFFFFF;}
</style>
<g id="Shadow_apple-59">
	<ellipse class="st0_apple-59" cx="197.9" cy="360.6" rx="102.9" ry="12.1"/>
	<ellipse class="st0_apple-59" cx="325.7" cy="375.3" rx="74.9" ry="12.4"/>
</g>
<g id="Apple_apple-59">
	<path class="st1_apple-59 targetColor" d="M288,212.8c0,0-4.3-31.5-28.8-55.2s-90.7-28.8-139.5-9.9s-59.5,67.4-59.5,92.6c0,47.1,36.6,115.5,73.7,121.4&#10;&#9;&#9;c30,4.7,32.5,0.7,43.1-2.9c5.4,0,18.8,6.9,37.3,1.3c11.7-3.5,53.6-44.4,67-81.7S288,212.8,288,212.8z" style="fill: rgb(32, 200, 48);"/>
	<path class="st2_apple-59" d="M155.6,364.7c-7.3-0.2-14.6-0.9-21.9-2.1c-37.6-5.9-74.3-74.9-74.3-122.1c0-11.7,3-71.2,60-93.3&#10;&#9;&#9;c48.6-18.8,115.4-14,140.3,10c24,23.2,28.8,54.4,29,55.6s6.4,29.6-6.7,66.1c-13.6,37.9-55.8,78.7-67.5,82.2&#10;&#9;&#9;c-13.8,4.1-24.6,1.5-31.8-0.2c-1.8-0.5-3.7-0.9-5.6-1.1c-1.6,0.5-3,1.1-4.3,1.6C167.4,363.7,161.5,364.8,155.6,364.7z M185.1,137&#10;&#9;&#9;c-22,0-45.1,3.7-65.2,11.5c-56.2,21.8-59.1,80.4-59.1,92c0,22.5,8.7,51.6,22.8,75.8c15,25.9,33.4,42.2,50.3,44.9&#10;&#9;&#9;c25.1,4,30.6,1.8,38.3-1.2c1.4-0.5,2.9-1.1,4.5-1.7c0.1,0,0.1,0,0.2,0c2.1,0.2,4.1,0.5,6.1,1.1c7,1.7,17.6,4.2,31,0.2&#10;&#9;&#9;c11.4-3.4,53-43.7,66.5-81.3c13.2-36.7,6.7-65,6.7-65.3c0,0,0,0,0-0.1c0-0.3-4.6-31.6-28.6-54.8C244.4,144.3,215.9,137,185.1,137z"/>
	<path class="st2_apple-59" d="M156.4,184.6c-12.1,0-30.5-4.8-31.4-5c-0.4-0.1-0.6-0.4-0.5-0.8c0.1-0.4,0.4-0.6,0.8-0.5c0,0,0.1,0,0.1,0&#10;&#9;&#9;c0.2,0.1,24,6.2,35.2,4.7c4.6-0.6,11.6-3.7,19.8-7.2c12.2-5.3,25.9-11.2,37.1-11.7c0.4,0,0.7,0.3,0.7,0.7c0,0.4-0.3,0.7-0.6,0.7&#10;&#9;&#9;c0,0,0,0,0,0c-10.9,0.5-24.5,6.4-36.6,11.6c-8.3,3.6-15.4,6.7-20.1,7.3C159.3,184.6,157.9,184.6,156.4,184.6z"/>
	<path class="st2_apple-59" d="M193.3,171.8c-0.1,0-0.3,0-0.4-0.1c-0.3-0.2-0.5-0.6-0.3-1c0,0,0,0,0,0c0.4-0.6,8.9-14.4,19.2-21.1&#10;&#9;&#9;c0.3-0.2,0.8-0.1,1,0.2s0.1,0.8-0.2,1l0,0c-10,6.5-18.7,20.6-18.8,20.7C193.8,171.6,193.6,171.8,193.3,171.8z"/>
	<path class="st3_apple-59" d="M197.9,116.9c0,0-13.3,1.2-31.1,9.9c0,0-29.4-22.5-54.3-10S57,157.3,52.3,178c0,0,39.4,14.8,67,15.2&#10;&#9;&#9;s47.9-32.2,49.5-62.9c0,0,16-8.1,28.2-9.3L197.9,116.9z"/>
	<path class="st2_apple-59" d="M119.8,193.8h-0.5c-27.4-0.4-66.8-15.1-67.2-15.2c-0.3-0.1-0.5-0.5-0.4-0.8c4.7-20.7,35.8-49.1,60.7-61.7&#10;&#9;&#9;c10.3-5.2,23.1-5.1,37,0.3c6.3,2.5,12.2,5.7,17.7,9.5c17.5-8.5,30.8-9.8,30.9-9.8c0.4,0,0.7,0.2,0.8,0.6c0,0.1,0,0.2,0,0.2l-1,4.1&#10;&#9;&#9;c-0.1,0.3-0.3,0.5-0.6,0.5c-10.9,1.1-25.1,7.9-27.6,9.1C167.7,161.4,147.5,193.8,119.8,193.8z M53.1,177.5&#10;&#9;&#9;c5,1.8,40.8,14.5,66.2,14.9c27.2,0.4,47.2-31.8,48.8-62.2c0-0.3,0.2-0.5,0.4-0.6c0.6-0.3,15.8-8,27.9-9.3l0.6-2.7&#10;&#9;&#9;c-3.4,0.5-15.1,2.5-29.9,9.7c-0.2,0.1-0.5,0.1-0.7-0.1c-5.5-3.9-11.4-7.2-17.7-9.6c-9.4-3.7-23.3-6.7-35.8-0.3&#10;&#9;&#9;C88.5,129.7,58.2,157.2,53.1,177.5z"/>
	<path class="st2_apple-59" d="M177,178c0,0,11.3-44,20-57c0,0,0-6.6,1-6.8s9.8,2.5,10.5,4.5s-2.5,5.5-3.4,6.1s-19.3,34.8-20.6,50L177,178z"/>
	<path class="st2_apple-59" d="M177,178.7c-0.2,0-0.3-0.1-0.4-0.2c-0.2-0.2-0.3-0.4-0.2-0.7c0.5-1.8,11.3-43.8,19.9-57c0-7,1.1-7.2,1.6-7.3&#10;&#9;&#9;c1.1-0.2,10.4,2.4,11.3,4.9s-2.6,6.3-3.8,6.9c-1.3,1.4-19,34.7-20.2,49.5c0,0.3-0.2,0.5-0.4,0.6l-7.5,3.2&#10;&#9;&#9;C177.2,178.7,177.1,178.7,177,178.7z M198.2,114.9c-0.4,2-0.6,4.1-0.6,6.1c0,0.1,0,0.3-0.1,0.4c-7.6,11.5-17.5,47.8-19.5,55.4&#10;&#9;&#9;l5.8-2.5c1.6-15.1,19.2-49.1,20.9-50.1c0.9-0.6,3.6-3.8,3.1-5.3S199.9,115,198.2,114.9L198.2,114.9z"/>
	<path class="st2_apple-59" d="M52.3,178.7c-0.4,0-0.7-0.3-0.7-0.7c0-0.3,0.2-0.5,0.4-0.6c0.4-0.1,36.9-14.1,43.9-16.7&#10;&#9;&#9;c9.9-3.6,54.2-25.2,70.6-34.5c0.3-0.2,0.8-0.1,1,0.2c0.2,0.3,0.1,0.8-0.2,1c0,0-0.1,0-0.1,0c-16.5,9.3-60.8,30.9-70.8,34.6&#10;&#9;&#9;c-4.1,1.5-18.1,6.8-29.2,11.1c9-2.6,20.7-6.1,31.5-9.6c16.6-5.4,69.2-33.4,69.8-33.7c0.3-0.2,0.8,0,0.9,0.3c0.2,0.3,0,0.8-0.3,0.9&#10;&#9;&#9;l0,0c-0.5,0.3-53.3,28.3-70,33.8c-21.5,7-46.4,13.9-46.7,13.9L52.3,178.7z"/>
	<path class="st0_apple-59" d="M130.5,181.5c-0.2,0-0.3,0-0.4-0.1c-0.3-0.2-0.4-0.7-0.2-1c0,0,0,0,0,0c11-14.9,19.5-37.6,19.6-37.8&#10;&#9;&#9;c0.1-0.4,0.5-0.6,0.9-0.4c0.4,0.1,0.6,0.5,0.4,0.9c0,0,0,0,0,0.1c-0.1,0.2-8.7,23.1-19.8,38.1C130.9,181.4,130.7,181.5,130.5,181.5&#10;&#9;&#9;z"/>
	<path class="st0_apple-59" d="M143.7,137c-0.1,0-0.2,0-0.3-0.1c-0.2-0.1-19.8-9.2-35.2-9.4c-0.4,0-0.7-0.3-0.7-0.7c0-0.4,0.3-0.7,0.7-0.7&#10;&#9;&#9;l0,0c15.7,0.3,35.6,9.5,35.8,9.6c0.4,0.2,0.5,0.6,0.3,0.9c0,0,0,0,0,0C144.2,136.8,144,137,143.7,137z"/>
	<path class="st0_apple-59" d="M110.5,182.8c-0.1,0-0.2,0-0.3-0.1c-0.3-0.2-0.5-0.6-0.3-0.9c0,0,0,0,0,0c4.8-9.7,9.1-25,9.1-25.1&#10;&#9;&#9;c0.1-0.4,0.5-0.6,0.9-0.5c0.4,0.1,0.6,0.5,0.5,0.9c0,0.1-4.3,15.5-9.2,25.4C111,182.6,110.8,182.8,110.5,182.8z"/>
	<path class="st0_apple-59" d="M113.6,149.7c-0.2,0-0.5-0.1-0.6-0.3c-1-1.2-15.6-8.1-25-9.9c-0.4-0.1-0.6-0.5-0.5-0.9&#10;&#9;&#9;c0.1-0.3,0.4-0.6,0.8-0.5c9.4,1.8,25,8.9,26,10.6c0.2,0.3,0.1,0.8-0.2,1c0,0,0,0,0,0C113.9,149.7,113.8,149.7,113.6,149.7z"/>
	<path class="st0_apple-59" d="M88.2,161.3c-0.2,0-0.3,0-0.4-0.1c-3.1-2.3-14.3-4.6-14.4-4.7c-0.4-0.1-0.6-0.4-0.5-0.8c0,0,0,0,0,0&#10;&#9;&#9;c0.1-0.4,0.4-0.6,0.8-0.6c0.5,0.1,11.7,2.4,15,4.9c0.3,0.2,0.4,0.7,0.2,1c0,0,0,0,0,0C88.6,161.2,88.4,161.3,88.2,161.3z"/>
	<path class="st0_apple-59" d="M85,184.6c-0.4,0-0.7-0.3-0.7-0.7c0-0.2,0.1-0.3,0.2-0.4c4.8-5.6,7.2-14.1,7.2-14.2c0.1-0.4,0.5-0.6,0.9-0.5&#10;&#9;&#9;c0.4,0.1,0.6,0.5,0.5,0.9c0,0,0,0,0,0c-0.1,0.4-2.5,8.9-7.5,14.7C85.4,184.5,85.2,184.6,85,184.6z"/>
</g>
<g id="Sliced_Apple_apple-59">
	<path class="st1_apple-59 targetColor" d="M202.1,231.6c0,0-2.5,26,7.4,58.3s38.6,63.1,64.3,75.3s54.8,17.7,87.1,10.6s64.4-40.1,71.2-52&#10;&#9;&#9;s-2.6-94.1-35-110.1S206.9,220.5,202.1,231.6z" style="fill: rgb(32, 200, 48);"/>
	<path class="st2_apple-59" d="M332.5,379.7c-19.9,0-39.7-4.6-59-13.8c-24.1-11.5-54.1-41.2-64.6-75.7c-9.8-32.1-7.4-58.4-7.4-58.6&#10;&#9;&#9;c0-0.1,0-0.1,0.1-0.2c0.4-0.9,1.6-2.3,7.4-4.5C225,221,265,214,304.2,210.3c22-2.1,75.3-6,93.2,2.9c15.3,7.6,24.4,28.7,29.4,45.1&#10;&#9;&#9;c8.4,27.6,10.1,58.6,5.9,65.9c-6.6,11.5-38.7,45.1-71.7,52.3C351.6,378.6,342.1,379.7,332.5,379.7z M202.8,231.8&#10;&#9;&#9;c-0.2,2-2,27.3,7.4,57.9c10.4,34.1,40,63.5,63.9,74.9c28.2,13.5,57.4,17,86.7,10.6c32.5-7.1,64.2-40.2,70.8-51.6&#10;&#9;&#9;c3.6-6.2,2.6-36.2-6-64.8c-4.9-16.2-13.8-37-28.6-44.3c-27.5-13.6-154.3,1.6-187.4,13.7C204.5,229.9,203.1,231.1,202.8,231.8z"/>
	<path class="st3_apple-59" d="M277,289.9c0,0-31.5,9.5-58.9-21s-15.2-59.4,2.6-74.6s64.6-37.3,104.6-34.7s46.3,28.4,46.3,28.4&#10;&#9;&#9;s23.1-9.5,48.9,8.9s33.6,65.7,21.5,106.7s-62,62.5-98.3,58.9S282.3,334.6,277,289.9z"/>
	<path class="st2_apple-59" d="M351.9,363.5c-2.7,0-5.5-0.1-8.2-0.4c-38.1-3.9-62-29.5-67.3-72.4c-5.1,1.2-33.9,6.3-58.8-21.4&#10;&#9;&#9;c-11.6-13-17.1-26.6-16.1-40.3c0.9-13,7.7-25.8,18.8-35.3c19.1-16.2,66.2-37.4,105.1-34.8c36.2,2.4,45.2,23.9,46.7,28.2&#10;&#9;&#9;c4.1-1.4,25.6-7.3,48.8,9.3c25.2,18,34.6,64.2,21.8,107.5c-5.6,18.9-19.9,35.5-40.4,46.6C386.8,358.8,368.5,363.5,351.9,363.5z&#10;&#9;&#9; M277,289.2c0.1,0,0.3,0,0.4,0.1c0.2,0.1,0.3,0.3,0.3,0.5c5,42.6,28.5,68.1,66.1,71.9c18.2,1.9,39.9-2.9,57.8-12.6&#10;&#9;&#9;c20.1-10.9,34.3-27.2,39.7-45.8c12.6-42.7,3.4-88.3-21.3-105.9c-13-9.3-25.2-11.2-33.3-11.2h-0.3c-5-0.1-9.9,0.8-14.6,2.4&#10;&#9;&#9;c-0.2,0.1-0.4,0.1-0.6,0c-0.2-0.1-0.3-0.3-0.4-0.4c-0.1-0.2-6.7-25.3-45.6-27.9c-38.5-2.6-85.2,18.4-104.1,34.5&#10;&#9;&#9;c-10.8,9.2-17.5,21.7-18.4,34.3c-0.9,13.4,4.4,26.6,15.8,39.3c26.7,29.8,57.8,20.9,58.1,20.8L277,289.2z"/>
	<path class="st3_apple-59" d="M371.6,188c0,0-18.3,27.5-31.3,41.3S286,284,283.2,286"/>
	<path class="st2_apple-59" d="M283.2,286.7c-0.2,0-0.4-0.1-0.6-0.3c-0.2-0.3-0.2-0.8,0.2-1c0,0,0,0,0,0c2.6-1.9,43.9-42.7,57.1-56.7&#10;&#9;&#9;c12.8-13.6,31-40.9,31.2-41.2c0.2-0.3,0.7-0.4,1-0.1c0.3,0.2,0.4,0.6,0.2,0.9c-0.2,0.3-18.5,27.7-31.3,41.4&#10;&#9;&#9;c-12.5,13.2-54.2,54.7-57.3,56.9C283.5,286.6,283.4,286.7,283.2,286.7z"/>
	<path class="st0_apple-59" d="M304.4,244.1c0,0-5.1-8.8-4.3-14.8s3.1-11.3,9.5-9.7s7.9,7.7,6.6,12.1S304.4,244.1,304.4,244.1z"/>
	<path class="st0_apple-59" d="M331.5,263.5c0,0,2.6-5.7,10.2-11.5c7.2-5.5,16-3.6,16.8,1.7s-7.5,10.5-16.4,11.7&#10;&#9;&#9;C338.5,265.8,334.8,265.2,331.5,263.5z"/>
	<path class="st2_apple-59" d="M337.7,232c-4.9-0.9-10.1,0.4-13.9,3.7c-6.8,5.6-14.9,25.4-14.9,25.4L337.7,232z"/>
	<path class="st2_apple-59" d="M308.9,261.8c-0.4,0-0.7-0.3-0.7-0.7c0-0.1,0-0.2,0.1-0.3c0.3-0.8,8.2-20,15.1-25.7c4-3.4,9.3-4.9,14.5-3.8&#10;&#9;&#9;c0.2,0.1,0.4,0.2,0.5,0.5c0.1,0.2,0,0.5-0.2,0.7l-28.8,29.1C309.3,261.7,309.1,261.8,308.9,261.8z M334.8,232.4&#10;&#9;&#9;c-3.8,0-7.6,1.4-10.5,3.8c-4.9,4-10.6,15.8-13.2,21.7l25.2-25.5C335.8,232.4,335.3,232.4,334.8,232.4L334.8,232.4z"/>
	<path class="st2_apple-59" d="M342.8,235.8c0,0-25.3,22.2-27.4,25.3c0,0,1.5,0.4,12-5.9S342.8,235.8,342.8,235.8z"/>
	<path class="st2_apple-59" d="M315.5,261.8h-0.2c-0.2-0.1-0.4-0.2-0.5-0.4c-0.1-0.2,0-0.5,0.1-0.6c2.1-3.1,26.4-24.5,27.5-25.4&#10;&#9;&#9;c0.3-0.3,0.7-0.2,1,0.1c0.2,0.2,0.2,0.5,0.1,0.7c-0.2,0.5-5,13.4-15.6,19.8C319.1,261,316.3,261.8,315.5,261.8z M340.8,238.4&#10;&#9;&#9;c-7.6,6.8-19,16.9-23.2,21.3c3.3-1.5,6.4-3.2,9.5-5.1C334.3,250.3,338.8,242.6,340.8,238.4z"/>
	<path class="st2_apple-59" d="M365.3,176.8c0,0,7.4,9.9,1.3,18.5c0,0,8.6-9.6,19.1-9.3C385.7,186.1,372.6,187.4,365.3,176.8z"/>
	<path class="st2_apple-59" d="M366.6,196c-0.2,0-0.3-0.1-0.4-0.1c-0.3-0.2-0.4-0.7-0.2-1c0,0,0,0,0,0c5.1-7.2,0.2-15.6-1-17.4l-0.3-0.4&#10;&#9;&#9;c-0.2-0.3-0.1-0.8,0.2-1c0.3-0.2,0.7-0.1,0.9,0.2l0.3,0.4c5.3,7.5,13.9,8.6,17.6,8.7c0.7-0.1,1.3-0.1,2-0.1c0.4,0,0.7,0.3,0.7,0.7&#10;&#9;&#9;c0,0.4-0.3,0.7-0.6,0.7c0,0-0.7,0.1-1.9,0.1c-9.2,0.7-16.7,8.9-16.8,9C367.1,195.9,366.8,196,366.6,196z M368.5,181.4&#10;&#9;&#9;c1.4,3.4,1.6,7.2,0.5,10.7c3-2.6,6.4-4.5,10.2-5.8C375.3,185.6,371.6,183.9,368.5,181.4L368.5,181.4z"/>
	<path class="st2_apple-59" d="M258.7,290.9c0,0,12.5,0.1,15.2,2.7s6.5,10.8,5.6,10.2s-2.5-14-2.5-14L258.7,290.9z"/>
	<path class="st2_apple-59" d="M279.5,304.6c-0.2,0-0.3,0-0.4-0.1c-0.2-0.1-0.5-0.3-1-2.7c-1.1-2.4-3.1-6-4.7-7.6c-2-2-11.3-2.5-14.7-2.5&#10;&#9;&#9;c-0.4,0-0.7-0.3-0.7-0.7c0-0.4,0.3-0.7,0.7-0.7l18.3-1c0.4,0,0.7,0.3,0.7,0.6c0.5,4.2,1.1,8.7,1.7,11.3c0.7,1.5,1.1,2.8,0.8,3.2&#10;&#9;&#9;C280,304.5,279.8,304.6,279.5,304.6z M278.9,303.8L278.9,303.8z M268.7,291.1c2.4,0.4,4.6,1.1,5.6,2.1c1.1,1.3,2.1,2.7,2.9,4.1&#10;&#9;&#9;c-0.3-1.7-0.6-3.9-0.9-6.6L268.7,291.1z"/>
</g>
</svg>