<svg id="_0418_banana" xmlns="http://www.w3.org/2000/svg" viewBox="0 0 500 500" data-imageid="banana-81" imageName="Banana" class="illustrations_image" style="width: 157px;"><defs><style>.cls-1_banana-81{fill:#fff;opacity:.3;}.cls-2_banana-81{fill:#24285b;}.cls-3_banana-81{fill:#e6e6e6;opacity:.18;}.cls-4_banana-81{fill:#000001;opacity:.1;}.cls-5_banana-81{fill:#ffd200;}.cls-6_banana-81{fill:#68e1fd;}</style></defs><path id="bg_banana-81" class="cls-3_banana-81" d="m470.14,218.66c-15.82-79.52-47.77-130.86-101.19-147.46-73.92-22.97-167.39-24.21-238.92-1.07-26.65,8.62-53.41,24.67-71.95,55.78-34.35,57.65-46.36,169.05-13.67,232.71,14.55,28.34,41.59,54.66,64.49,61.05,87.15,24.31,176.53,10.85,264.82.77,20.47-2.34,41.8-4.89,59.46-21.2,37.48-34.61,49.17-119.16,36.95-180.58Z"/><g id="banana_banana-81"><path class="cls-4_banana-81" d="m337.25,230.26s20.5-26.71,55.99-22.89c35.49,3.82,49.06,27.07,50.62,17.68s-33.84-57.41-78.87-64.4c-45.03-6.99-86.82,57.79-86.82,57.79l59.08,11.82Z"/><path class="cls-6_banana-81 targetColor" d="m337.25,230.26s20.5-26.71,55.99-22.89c35.49,3.82,49.06,27.07,50.62,17.68s-33.84-57.41-78.87-64.4c-45.03-6.99-86.82,57.79-86.82,57.79l59.08,11.82Z" style="fill: rgb(32, 200, 48);"/><path class="cls-4_banana-81" d="m337.25,230.26s20.5-26.71,55.99-22.89c35.49,3.82,49.06,27.07,50.62,17.68s-33.84-57.41-78.87-64.4c-45.03-6.99-86.82,57.79-86.82,57.79l59.08,11.82Z"/><path class="cls-5_banana-81" d="m218.58,230.2s8.03-32.64-17.66-72.23c-25.68-39.59-62.06-79.72-40.13-103.26,21.94-23.54,89.35-4.28,122.52,38.52,33.17,42.8,76.19,112.79,61.49,170.68s-120.35,36.92-126.23-33.71Z"/><path class="cls-1_banana-81" d="m218.58,230.2s8.03-32.64-17.66-72.23c-25.68-39.59-62.06-79.72-40.13-103.26,21.94-23.54,89.35-4.28,122.52,38.52,33.17,42.8,76.19,112.79,61.49,170.68s-120.35,36.92-126.23-33.71Z"/><path class="cls-6_banana-81 targetColor" d="m343.25,278c-.71,14.98-24.62,85.96-58.86,118.42-34.24,32.46-82.04,54.92-129.13,58.49-47.07,3.58-70.26-11.76-70.26-11.76,0,0-3.56,1.78-11.04,0-7.5-1.78-6.43-13.2-7.15-18.55-.02-.19-.04-.36-.06-.52-.67-5.03-.71-7.69,7.56-7.92,8.55-.23,8.55-4.76,17.83-15.47,9.26-10.69,35.31-17.12,67.06-35.31,31.75-18.19,56.35-70.62,57.06-95.96.71-25.31-21.75-41.37-61.36-29.59-39.59,11.76-71.69,65.99-77.03,53.86-5.36-12.13,17.83-42.81,43.15-59.56,25.34-16.76,80.26-34.26,109.56-20.35,29.3,13.91,38.83,51.19,38.83,51.19,37.09-10.88,74.56-1.97,73.85,13.01Z" style="fill: rgb(32, 200, 48);"/><path class="cls-1_banana-81" d="m269.41,264.98c-5.34,36.19-28.9,114.31-109.49,141.43-43.25,14.54-73.99,17.79-93.17,17.67-.67-5.03-.71-7.69,7.56-7.92,8.55-.23,8.55-4.76,17.83-15.47,9.26-10.69,35.31-17.12,67.06-35.31,31.75-18.19,56.35-70.62,57.06-95.96.71-25.31-21.75-41.37-61.36-29.59-39.59,11.76-71.69,65.99-77.03,53.86-5.36-12.13,17.83-42.81,43.15-59.56,25.34-16.76,80.26-34.26,109.56-20.35,29.3,13.91,38.83,51.19,38.83,51.19Z"/><path class="cls-6_banana-81 targetColor" d="m269.41,264.98s25.15-23.99,52.43-29.92c27.29-5.93,72.23,17.43,87.75,47.93,15.52,30.5,16.86,88.74-15.22,129.19-24.61,31.03-54.46,43.51-67.88,36.31-9.99-5.35,14.17-69.49,11.41-107.92-2.56-35.67-14.45-83.09-68.48-75.6Z" style="fill: rgb(32, 200, 48);"/><path class="cls-1_banana-81" d="m269.41,264.98s25.15-23.99,52.43-29.92c27.29-5.93,72.23,17.43,87.75,47.93,15.52,30.5,16.86,88.74-15.22,129.19-24.61,31.03-54.46,43.51-67.88,36.31-9.99-5.35,14.17-69.49,11.41-107.92-2.56-35.67-14.45-83.09-68.48-75.6Z"/><path class="cls-2_banana-81" d="m85,443.15c2.14-2.14-2.47-29.83-4.15-28.87s-24.38,1.75-24.74,5.32,5.75,25.33,10.37,27.11c4.61,1.78,18.52-3.56,18.52-3.56Z"/></g></svg>