<svg version="1.1" id="Layer_1" xmlns="http://www.w3.org/2000/svg" xmlns:xlink="http://www.w3.org/1999/xlink" x="0px" y="0px" viewBox="0 0 500 500" style="width: 157px;" xml:space="preserve" data-imageid="banana-66" imageName="Banana" class="illustrations_image">
<style type="text/css">
	.st0_banana-66{fill:#FFFFFF;}
	.st1_banana-66{fill:#231F20;}
	.st2_banana-66{fill:#D1D3D4;}
	.st3_banana-66{fill:#68E1FD;}
</style>
<g id="Plate_banana-66">
	<ellipse class="st0_banana-66" cx="250" cy="302.5" rx="190.2" ry="79.4"/>
	<path class="st1_banana-66" d="M250,223.1c105,0,190.2,35.6,190.2,79.4S355,381.9,250,381.9S59.8,346.3,59.8,302.5S145,223.1,250,223.1&#10;&#9;&#9; M250,221.7c-51,0-98.9,8.3-135,23.4c-36.5,15.2-56.6,35.6-56.6,57.4s20.1,42.2,56.6,57.4c36.1,15.1,84,23.4,135,23.4&#10;&#9;&#9;s98.9-8.3,135-23.4c36.5-15.2,56.6-35.6,56.6-57.4S421.5,260.2,385,245C348.9,229.9,301,221.6,250,221.7L250,221.7z"/>
	<path class="st2_banana-66" d="M250,360.7c-89.3,0-162-26.1-162-58.2s72.7-58.2,162-58.2s162,26.1,162,58.2S339.3,360.7,250,360.7z&#10;&#9;&#9; M250,245.7c-88.6,0-160.6,25.5-160.6,56.8s72,56.8,160.6,56.8s160.6-25.5,160.6-56.8S338.5,245.6,250,245.7L250,245.7z"/>
</g>
<g id="Banana_banana-66">
	<path class="st3_banana-66 targetColor" d="M325.7,131.6c-10.5,17.9-18.1,27-18.1,27s-17.6-3.5-33.7,5.4s-38.3,14.9-58.7,11.5s-79.2-28.8-87.9-28.7&#10;&#9;&#9;c-5.1,0-10.2,0.9-15,2.6l-5.7,11.2c0,0,3,20.1,30.4,40.1s68.4,22.9,106.3,24s73.3-29.8,73.7-41.4s5.8-23.8,17.6-41.8&#10;&#9;&#9;C334.8,141.6,337.1,138.7,325.7,131.6z" style="fill: rgb(32, 200, 48);"/>
	<path class="st1_banana-66" d="M245.5,225.4h-2.1c-37.2-1.1-79.1-4-106.7-24.2c-27.3-19.9-30.6-39.7-30.7-40.5c0-0.1,0-0.3,0.1-0.4l5.7-11.2&#10;&#9;&#9;c0.1-0.2,0.2-0.3,0.4-0.3c4.9-1.8,10-2.7,15.2-2.7l0,0c4.2,0,19.1,5.5,36.3,11.8c19.2,7.1,41,15.1,51.7,16.9&#10;&#9;&#9;c18,3,39.8-1.3,58.2-11.4c14.8-8.1,31-6,33.8-5.5c6.5-8.5,12.5-17.3,17.8-26.6c0.2-0.3,0.6-0.5,1-0.3c0,0,0,0,0,0&#10;&#9;&#9;c5.9,3.7,9.2,6.9,9.5,9.4c0.1,0.6,0,1.2-0.3,1.7c-12,18.2-17.1,30.2-17.5,41.3C317.4,195.5,283,225.4,245.5,225.4z M107.4,160.7&#10;&#9;&#9;c0.4,2.2,4.8,20.9,30.1,39.4c27.3,19.9,69,22.8,105.9,23.9s72.6-29,73-40.7c0.4-11.4,5.5-23.6,17.8-42.1c0,0,1.2-2.6-8.2-8.6&#10;&#9;&#9;c-10.2,17.3-17.7,26.4-17.8,26.5c-0.2,0.2-0.4,0.3-0.7,0.2c-0.2,0-17.5-3.3-33.3,5.3c-18.7,10.3-40.8,14.6-59.1,11.6&#10;&#9;&#9;c-10.9-1.8-32.7-9.8-52-16.9c-16.4-6-31.9-11.7-35.8-11.7l0,0c-4.9,0-9.8,0.8-14.5,2.5L107.4,160.7z"/>
	<path class="st3_banana-66 targetColor" d="M118.6,159c0,0,7.8,24.7,57.6,45.5s100.1,8.3,119.1-8.4" style="fill: rgb(32, 200, 48);"/>
	<path class="st1_banana-66" d="M230.2,216c-18.6,0-37.1-3.7-54.3-10.9c-49.5-20.6-57.7-44.9-58-45.9c-0.1-0.4,0.1-0.8,0.5-0.9&#10;&#9;&#9;c0.4-0.1,0.8,0.1,0.9,0.5l0,0c0.1,0.2,8.4,24.7,57.2,45c50.4,21,100.4,7.5,118.4-8.3c0.3-0.3,0.7-0.3,1,0c0.3,0.3,0.3,0.7,0,1&#10;&#9;&#9;c0,0-0.1,0-0.1,0.1C284.2,206.8,259.6,216,230.2,216z"/>
	<path class="st1_banana-66" d="M106.7,160.6c0,0,6.3-1.8,7.8-4.5s5.3-6.3,4.1-7.6c-5-5.5-8.5,3.6-10.4,7.2C108.2,155.9,106,160.8,106.7,160.6&#10;&#9;&#9;z"/>
	<path class="st1_banana-66" d="M106.7,161.3c-0.3,0-0.5-0.1-0.7-0.3c-0.8-0.9,1.5-5.4,1.6-5.6l0.5-1.1c1.5-3.1,3.7-7.8,6.8-8.2&#10;&#9;&#9;c1.4-0.2,2.8,0.4,4.2,1.9c1.2,1.3-0.3,3.3-2.1,5.6c-0.7,0.9-1.3,1.8-1.9,2.8c-1.7,3-7.9,4.8-8.3,4.9l0,0l0,0l0,0L106.7,161.3z&#10;&#9;&#9; M115.5,147.4h-0.3c-2.4,0.4-4.5,4.8-5.8,7.4l-0.5,1.1c-0.3,0.5-1.1,2.5-1.4,3.6c2-0.7,5.5-2.1,6.5-3.9c0.6-1,1.3-2,2-3&#10;&#9;&#9;c0.9-1.2,2.5-3.4,2.2-3.8C117.4,148.1,116.5,147.5,115.5,147.4z"/>
	<path class="st3_banana-66 targetColor" d="M331.9,147c0,0-7.4,25.6-23.8,33.4c-16.4,1.3-32.5,5-47.8,10.8c-26,9.8-41.1,23.9-70.8,20.2&#10;&#9;&#9;s-48.8-13.8-60.8-7.8l-6.5,16.5c0,0,0.9,18.4,33.7,38.6s105,9.6,133.1-7.4s33.6-51,33.8-57.7s23.5-34.3,24.4-38&#10;&#9;&#9;S331.9,147,331.9,147z" style="fill: rgb(32, 200, 48);"/>
	<path class="st1_banana-66" d="M207,270.4c-19.9,0-38.6-3.2-51.3-11c-32.7-20.2-34-38.4-34-39.2c0-0.1,0-0.2,0-0.3l6.5-16.5&#10;&#9;&#9;c0.1-0.2,0.2-0.3,0.3-0.4c7.6-3.8,17.6-1.4,31.5,1.9c9.8,2.5,19.7,4.4,29.6,5.8c21.2,2.6,34.8-3.9,50.6-11.5&#10;&#9;&#9;c6.2-2.9,12.5-6,19.8-8.7c15.4-5.8,31.5-9.5,47.9-10.9c15.8-7.6,23.2-32.6,23.3-32.9c0.1-0.2,0.2-0.3,0.3-0.4&#10;&#9;&#9;c0.2-0.1,0.4-0.1,0.5-0.1c3.9,1.2,16.8,5.6,15.9,9.5c-0.3,1.5-3.3,5.6-8.5,12.7c-6.6,9-15.7,21.3-15.8,25.2&#10;&#9;&#9;c0,0.4-2.6,39.2-34.1,58.3C272.2,262.5,238.2,270.4,207,270.4z M123.1,220.3c0.2,1.7,2.8,19.1,33.4,37.9&#10;&#9;&#9;c32.3,19.9,104.3,9.6,132.4-7.4c30.9-18.8,33.4-56.8,33.4-57.1c0.1-4.3,8.6-15.8,16.1-25.9c4.1-5.6,8-10.9,8.3-12.1&#10;&#9;&#9;c0.4-1.8-7-5.3-14.3-7.7c-1.3,4.2-8.8,25.9-23.9,33.1c-0.1,0-0.2,0.1-0.3,0.1c-16.3,1.4-32.3,5-47.6,10.8&#10;&#9;&#9;c-7.2,2.7-13.6,5.8-19.7,8.7c-16,7.6-29.8,14.2-51.4,11.6c-10-1.4-20-3.3-29.8-5.8c-13.4-3.2-23.2-5.6-30.3-2.1L123.1,220.3z&#10;&#9;&#9; M308.2,180.3L308.2,180.3z"/>
	<path class="st3_banana-66 targetColor" d="M339.8,156.8c0,0,2.5,13.1-3.9,28.9c0,0-14.7,4.5-32.8,27.3s-42.8,42.4-77.4,44s-63.7-6.8-76.9,0.9&#10;&#9;&#9;s-10.7,13.5-24.5,13.6l-7.9,16.6c0,0,4.6,9.2,23.8,19.3s61,23.4,108.5,13.2s84.2-37.4,99.4-70.7s4-62,4-62s2.8-20.1,5-28.5&#10;&#9;&#9;L339.8,156.8z" style="fill: rgb(32, 200, 48);"/>
	<path class="st1_banana-66" d="M213.9,324.9c-39.1,0-67.5-13.6-74-17c-19.3-10.1-24-19.2-24.2-19.6c-0.1-0.2-0.1-0.4,0-0.6l7.9-16.6&#10;&#9;&#9;c0.1-0.2,0.4-0.4,0.6-0.4c8.2-0.1,10.4-2.1,14-5.6c3-3.1,6.5-5.7,10.2-7.9c8-4.7,21.3-3.6,38.1-2.3c11.7,0.9,24.9,2,39.1,1.3&#10;&#9;&#9;c29.6-1.4,54.7-15.7,76.9-43.7c16.7-21.2,30.5-26.6,32.8-27.4c6-15.3,3.7-28.1,3.7-28.2c-0.1-0.4,0.2-0.7,0.5-0.8&#10;&#9;&#9;c0.1,0,0.2,0,0.3,0l17.4,2.6c0.2,0,0.4,0.1,0.5,0.3c0.1,0.2,0.1,0.4,0.1,0.6c-2.1,7.8-4.7,26.2-5,28.2c0.9,2.5,10.5,30.5-4.1,62.4&#10;&#9;&#9;c-15.8,34.5-53.2,61.1-99.9,71.1C237.4,323.7,225.7,324.9,213.9,324.9z M117.2,288c1,1.6,6.4,9.8,23.4,18.7&#10;&#9;&#9;c8.2,4.3,52,25.1,108.1,13.1c46.4-9.8,83.4-36.1,98.9-70.3c15-32.7,4.1-61.2,4-61.4c0-0.1-0.1-0.2,0-0.4c0-0.2,2.6-19.1,4.8-27.8&#10;&#9;&#9;l-15.7-2.4c1,9.6-0.3,19.4-4,28.4c-0.1,0.2-0.2,0.3-0.4,0.4c-0.1,0-14.8,4.7-32.4,27.1c-22.4,28.4-47.9,42.9-77.9,44.3&#10;&#9;&#9;c-14.3,0.7-27.6-0.4-39.3-1.3c-16.6-1.3-29.7-2.3-37.3,2.1c-3.6,2.1-7,4.7-9.9,7.7c-3.6,3.5-6,5.8-14.5,6L117.2,288z M336,185.7&#10;&#9;&#9;L336,185.7z"/>
	<path class="st3_banana-66 targetColor" d="M358.2,168.2c0,0,3.1,0.2,1.5,16s-3.5,37.4-32.6,75.7s-75.2,49.5-107,53.7s-36.5,28.5-36.5,28.5l5.7,14.3&#10;&#9;&#9;c0,0,7.6,6.6,26.5,9.2s57.8,5.3,97.8-14.3s70.3-76.1,68.3-106.8c-1.1-16.9-12.7-30.1-11.9-37.2s5.8-33.7,5.8-33.7L358.2,168.2z" style="fill: rgb(32, 200, 48);"/>
	<path class="st1_banana-66" d="M241.6,368.1c-8.7,0-17.3-0.6-25.9-1.8c-18.9-2.6-26.6-9.1-26.9-9.4c-0.1-0.1-0.1-0.2-0.2-0.3l-5.7-14.3&#10;&#9;&#9;c0-0.1,0-0.3,0-0.4c0-0.2,5.1-24.9,37.1-29c48.6-6.3,84.4-24.3,106.6-53.4c28.7-37.7,30.9-59.2,32.5-74.8v-0.5&#10;&#9;&#9;c1.4-13.4-0.7-15.1-0.9-15.2H358c-0.3-0.1-0.6-0.4-0.5-0.8c0.1-0.4,0.4-0.6,0.7-0.6c0.1,0,0.2,0,0.3,0.1l17.4,5.3&#10;&#9;&#9;c0.3,0.1,0.6,0.4,0.5,0.8c0,0.3-5,26.6-5.8,33.6c-0.3,2.9,1.7,7.3,4.1,12.4c3.2,6.8,7.2,15.2,7.8,24.8&#10;&#9;&#9;c2.2,32.2-29.1,88.1-68.7,107.5C292,362.6,267.4,368.1,241.6,368.1z M189.8,355.9c1,0.8,8.8,6.6,26,9c34.9,4.8,68.6-0.1,97.4-14.2&#10;&#9;&#9;c18.4-9,36-26.4,49.6-49c12.4-20.6,19.2-42,18.2-57.1c-0.6-9.3-4.5-17.6-7.7-24.3c-2.6-5.4-4.6-9.8-4.2-13.1&#10;&#9;&#9;c0.7-6.5,4.9-29.1,5.7-33.1l-14.9-4.6c0.8,2.1,1.2,6.3,0.4,14.8l0,0.5c-1.6,15.8-3.8,37.5-32.7,75.5c-22.4,29.4-58.6,47.6-107.5,54&#10;&#9;&#9;c-29.4,3.8-35.3,25.5-35.8,27.7L189.8,355.9z"/>
	<path class="st3_banana-66 targetColor" d="M385.4,159.1c0,0-48.3-16.9-63.7-41.7c0,0-16.2,5-8.2,14.1c0,0,40.2,42.4,60.3,50.4&#10;&#9;&#9;C373.8,181.9,366.3,162,385.4,159.1z" style="fill: rgb(32, 200, 48);"/>
	<path class="st1_banana-66" d="M373.8,182.6c-0.1,0-0.2,0-0.3,0c-20-8-58.9-48.8-60.5-50.6c-2.1-2.4-2.8-4.7-2.2-7c1.5-5.4,10.4-8.1,10.7-8.2&#10;&#9;&#9;c0.3-0.1,0.6,0,0.8,0.3c15,24.3,62.8,41.2,63.3,41.4c0.3,0.1,0.5,0.4,0.5,0.7c0,0.3-0.3,0.6-0.6,0.6c-5.1,0.8-8.7,2.9-10.7,6.3&#10;&#9;&#9;c-3.8,6.5-0.4,15.6-0.4,15.6c0.1,0.4-0.1,0.8-0.4,0.9C374,182.7,373.9,182.7,373.8,182.6L373.8,182.6z M321.5,118.3&#10;&#9;&#9;c-1.8,0.7-8.2,3.1-9.3,7.1c-0.5,1.8,0.1,3.7,1.9,5.7c0.4,0.4,38.5,40.4,58.6,49.6c-0.9-3-2.2-9.9,1-15.4c1.9-3.2,5-5.4,9.2-6.4&#10;&#9;&#9;C373.1,155.2,335.1,139.6,321.5,118.3z"/>
	
		<ellipse transform="matrix(0.4906 -0.8714 0.8714 0.4906 45.1678 419.2029)" class="st1_banana-66" cx="381.1" cy="171" rx="13.2" ry="11.2"/>
	<path class="st1_banana-66" d="M379.5,184.4c-2.2,0-4.3-0.7-6.1-1.9c-5.4-3.8-6.2-12.1-2-18.4c2.1-3.3,5.4-5.6,9.2-6.3&#10;&#9;&#9;c2.9-0.6,5.8,0.1,8.2,1.7c5.4,3.8,6.2,12.1,2,18.4c-2.1,3.3-5.4,5.6-9.3,6.3C380.9,184.4,380.2,184.4,379.5,184.4z M382.8,158.9&#10;&#9;&#9;c-0.6,0-1.2,0.1-1.8,0.2c-3.4,0.7-6.4,2.8-8.3,5.7c-3.8,5.7-3.1,13.1,1.6,16.5c2.1,1.5,4.7,2,7.1,1.5c3.4-0.7,6.4-2.8,8.4-5.7&#10;&#9;&#9;c3.8-5.7,3.1-13.1-1.6-16.5C386.5,159.5,384.7,158.9,382.8,158.9z"/>
	<path class="st1_banana-66" d="M126.3,277.1c0.7-1.7,1.1-3.5,0.6-4.5c-0.8-1.9-4.2-2.1-6-2.2c-4.6-0.2-4.7,1.3-6.8,5.4&#10;&#9;&#9;c-1.7,3.4-3.5,6.8-0.8,10c4.1,4.7,8.4,0.7,10.6-3.8C124.6,280.9,125.6,279,126.3,277.1z"/>
	<path class="st1_banana-66" d="M117.3,288.5c-1.8-0.1-3.4-0.9-4.4-2.4c-3-3.4-1.1-7.2,0.5-10.5l0.1-0.3l0.6-1.2c1.6-3.2,2.3-4.7,6.8-4.6&#10;&#9;&#9;c2.6,0.1,5.6,0.5,6.6,2.6c0.5,1.1,0.3,2.8-0.6,5.1c-0.6,1.5-1.3,3-1.9,4.1l-0.4,0.8c-1.7,3.6-4.2,5.9-6.7,6.2&#10;&#9;&#9;C117.8,288.5,117.5,288.6,117.3,288.5z M120.2,271.1c-2.9,0-3.3,0.9-4.7,3.8c-0.2,0.4-0.4,0.8-0.6,1.2l-0.1,0.3&#10;&#9;&#9;c-1.6,3.2-3.1,6.2-0.7,9c1.2,1.4,2.5,2,3.8,1.8c2.4-0.3,4.5-3,5.6-5.5l0.4-0.8c0.7-1.3,1.3-2.6,1.8-4l0,0c0.9-2.4,0.8-3.5,0.6-4&#10;&#9;&#9;c-0.7-1.6-4.2-1.8-5.3-1.8L120.2,271.1z"/>
	<path class="st1_banana-66" d="M206.7,295.4c-18.9,0-37.6-3.4-55.3-10.1c-0.4-0.1-0.5-0.6-0.4-0.9c0,0,0,0,0,0c0.1-0.4,0.5-0.6,0.9-0.4&#10;&#9;&#9;c0,0,0,0,0.1,0c0.5,0.2,49.2,20.4,98.1,2.6c55.4-20.2,76.8-54.9,84.6-73.8c0.1-0.4,0.5-0.6,0.9-0.5c0.4,0.1,0.6,0.5,0.5,0.9&#10;&#9;&#9;c0,0,0,0.1,0,0.1c-7.9,19.2-29.5,54.3-85.4,74.7C236.4,293,221.6,295.5,206.7,295.4z"/>
	<path class="st1_banana-66" d="M181.7,341.5c-1.6,2.5-3.1,5.2-2.8,7.9s1.6,3.9,3.6,5.4c0.9,0.7,7.8,4.2,8.6,2.8c1-1.7-0.7-3.6-1.7-5.3&#10;&#9;&#9;c-2.8-4.6-0.8-11.6-4.9-15C183.7,338.6,182.6,340,181.7,341.5z"/>
	<path class="st1_banana-66" d="M190.3,358.6c-2.4,0-7.6-2.8-8.2-3.3c-2.2-1.6-3.6-3.2-3.9-5.9c-0.3-3,1.3-5.9,2.9-8.4l0,0&#10;&#9;&#9;c0.4-0.6,0.8-1.1,1.1-1.7c0.6-0.8,1.1-1.6,1.6-2.4c0.1-0.2,0.3-0.3,0.5-0.3c0.2,0,0.4,0,0.6,0.1c2.5,2.1,2.9,5.4,3.3,8.6&#10;&#9;&#9;c0.3,2.3,0.6,4.8,1.7,6.6l0.5,0.8c1,1.5,2.2,3.4,1.2,5.2c-0.2,0.3-0.5,0.5-0.9,0.6C190.6,358.6,190.4,358.6,190.3,358.6z&#10;&#9;&#9; M182.3,341.9c-1.5,2.3-3,5-2.7,7.5c0.2,2.2,1.4,3.5,3.3,4.9c1.1,0.8,6.7,3.4,7.6,3c0.5-0.9-0.2-2-1.2-3.6&#10;&#9;&#9;c-0.2-0.3-0.4-0.6-0.6-0.9c-1.3-2.1-1.6-4.7-1.9-7.2c-0.3-2.7-0.7-5.4-2.2-7.1c-0.4,0.5-0.8,1.1-1.2,1.7S182.6,341.3,182.3,341.9&#10;&#9;&#9;L182.3,341.9z"/>
	<path class="st1_banana-66" d="M215.9,340.1c-12.2,0-19.5-2-19.6-2c-0.4-0.1-0.6-0.5-0.5-0.8c0,0,0,0,0,0c0.1-0.4,0.5-0.6,0.9-0.5&#10;&#9;&#9;c0.5,0.1,46.1,12.4,101.6-25.8c49.1-33.7,54.3-58.6,59.3-82.7c0.6-2.7,1.1-5.4,1.8-8.1c0.1-0.4,0.5-0.6,0.8-0.5&#10;&#9;&#9;c0.4,0.1,0.6,0.4,0.5,0.8c0,0,0,0,0,0c-0.6,2.7-1.2,5.4-1.8,8.1c-5.1,24.4-10.3,49.6-59.9,83.6&#10;&#9;&#9;C265.1,335.5,234.7,340.1,215.9,340.1z"/>
	<path class="st1_banana-66" d="M204.9,241h-2c-37.2-0.9-75.4-18.9-75.8-19.1c-0.4-0.1-0.5-0.5-0.4-0.9c0.1-0.4,0.5-0.5,0.9-0.4&#10;&#9;&#9;c0,0,0.1,0,0.1,0c0.4,0.2,38.3,18.1,75.3,18.9s84.1-22.2,101.8-39.2c14.7-14,15.1-13.7,15.7-13.1c0.3,0.3,0.4,0.8,0.1,1.2&#10;&#9;&#9;c0,0,0,0,0,0c-0.2,0.3-0.5,0.4-0.9,0.3c-1,0.7-4.2,3.4-14,12.7C288.1,218.2,241.7,241,204.9,241z"/>
	<path class="st1_banana-66" d="M128.8,203.6c-2,0.3-7.2-0.6-7.6,2c0,1,0,2,0.1,3c-0.1,1.8-1.2,3.4-2,5.1c-1.7,4,0.8,4.3,3.1,6.4&#10;&#9;&#9;c1.7-2.1,3.2-4.3,4.5-6.7C127.2,212.9,130.7,203.3,128.8,203.6z"/>
	<path class="st1_banana-66" d="M122.4,220.9c-0.2,0-0.3-0.1-0.5-0.2c-0.5-0.4-1-0.8-1.5-1.2c-1.7-1.2-3.3-2.4-1.8-6c0.2-0.5,0.5-1,0.7-1.5&#10;&#9;&#9;c0.6-1,1-2.2,1.2-3.4c0-0.4,0-0.8,0-1.2c-0.1-0.6-0.1-1.2,0-1.9c0.5-3.3,6.2-2.3,8.2-2.6l0,0c0.4-0.1,0.8,0.1,1.1,0.4&#10;&#9;&#9;c1.2,1.7-2.2,10.4-2.3,10.4c-1.3,2.4-2.9,4.7-4.6,6.8C122.8,220.8,122.7,220.9,122.4,220.9L122.4,220.9z M128.7,204.4&#10;&#9;&#9;c-0.6,0.1-1.2,0.1-2,0.1c-2,0-4.6,0-4.8,1.3c-0.1,0.5-0.1,1,0,1.5c0,0.5,0,0.9,0,1.4c-0.2,1.4-0.6,2.7-1.3,3.9&#10;&#9;&#9;c-0.2,0.5-0.5,0.9-0.7,1.4c-1.1,2.6-0.3,3.2,1.3,4.4c0.3,0.2,0.7,0.5,1,0.8c1.5-1.9,2.8-3.9,4-6&#10;&#9;&#9;C126.7,212.2,128.8,205.9,128.7,204.4z M128.8,203.6L128.8,203.6z"/>
</g>
</svg>