<svg version="1.1" id="Layer_1" xmlns="http://www.w3.org/2000/svg" xmlns:xlink="http://www.w3.org/1999/xlink" x="0px" y="0px" viewBox="0 0 500 500" style="width: 157px;" xml:space="preserve" data-imageid="meal-1-70" imageName="Meal 1" class="illustrations_image">
<style type="text/css">
	.st0_meal-1-70{fill:#FFFFFF;}
	.st1_meal-1-70{fill:#093F68;}
	.st2_meal-1-70{fill:#DFEAEF;}
	.st3_meal-1-70{fill:#70CC40;}
	.st4_meal-1-70{fill:#68E1FD;}
	.st5_meal-1-70{fill:#FFBC0E;}
</style>
<g id="plate_meal-1-70">
	<circle class="st0_meal-1-70" cx="250" cy="250" r="179"/>
	<path class="st1_meal-1-70" d="M250,431.1c-99.8,0-181.1-81.2-181.1-181.1S150.2,68.9,250,68.9S431.1,150.2,431.1,250S349.8,431.1,250,431.1z&#10;&#9;&#9; M250,73c-97.6,0-177,79.4-177,177s79.4,177,177,177s177-79.4,177-177S347.6,73,250,73z"/>
	<path class="st2_meal-1-70" d="M250,397.1c-81.1,0-147.1-66-147.1-147.1s66-147.1,147.1-147.1s147.1,66,147.1,147.1S331.1,397.1,250,397.1z&#10;&#9;&#9; M250,106.9c-78.9,0-143.1,64.2-143.1,143.1S171.1,393.1,250,393.1S393.1,328.9,393.1,250S328.9,106.9,250,106.9L250,106.9z"/>
</g>
<g id="food_meal-1-70">
	<path class="st3_meal-1-70" d="M168.6,304.8c-2.4,7.1-10.1,10.8-17.1,8.4c-5.1-1.7-8.6-6.3-9.1-11.7c-3.8,3.4-8.5,7-13.3,5.5&#10;&#9;&#9;c-3.8-1.1-6.1-5.1-6.5-9s0.8-7.8,1.9-11.5c-5-5-10.3-10.3-12.1-17.1s1.2-14.6,7.9-17.4c-3.4-5.8-6.1-8-4.5-15.5&#10;&#9;&#9;c2.6-12,13.6-20.4,25.1-12.6c2.2-6.3,4.8-13.1,10.4-16.7s15-2,16.5,4.5c2.5-4.9,9.7-5.7,14.3-2.8s7,8.3,8.2,13.7&#10;&#9;&#9;c2.8,13-0.2,26.7-8.1,37.4c-1.3,1.4-2.3,3.1-2.9,4.8c-1.1,3.8,1.3,7.8,1,11.8c-0.4,6.3-7.1,11.1-6.8,17.5c0.1,2.8,1.7,5.5,1.7,8.3&#10;&#9;&#9;c0.1,6.7-7.8,10.4-14.4,11.1"/>
	<path class="st1_meal-1-70" d="M155.6,316c-0.6,0-1.1,0-1.7-0.1c-5.9-0.9-10.8-5-12.8-10.6c-3.8,2.9-8.1,5.1-12.7,3.8&#10;&#9;&#9;c-4.8-1.4-7.4-6.4-7.9-10.7c-0.4-3.9,0.6-7.7,1.6-11.1c-4.6-4.5-9.9-10.1-11.8-17.2c-2-7.4,1-15.1,7-18.7l-0.5-0.8&#10;&#9;&#9;c-2.6-4.1-4.6-7.3-3.1-14.3c1.6-7.5,6.3-13.7,12.3-16.1c4.5-1.8,9.5-1.4,13.7,0.9c2.3-6.2,5-11.9,10.4-15.4c4-2.5,8.9-3,13.2-1.2&#10;&#9;&#9;c1.9,0.7,3.6,2,4.8,3.7c1.2-1,2.7-1.8,4.3-2.2c3.6-1,7.4-0.4,10.6,1.5c4.4,2.8,7.5,7.9,9.1,14.9c2.9,13.6-0.1,27.8-8.5,39l-0.4,0.6&#10;&#9;&#9;c-0.9,1.1-1.7,2.3-2.2,3.6c-0.5,1.7-0.1,3.6,0.4,5.7c0.5,1.9,0.7,3.8,0.7,5.7c-0.2,3.5-2,6.5-3.7,9.3s-3.2,5.3-3.1,8&#10;&#9;&#9;c0.1,1.2,0.4,2.4,0.8,3.5c0.5,1.6,0.9,3.2,0.9,4.8c0.1,7.8-8.4,12.2-16.2,13.1c-0.4,0-0.7,0-1.1-0.2C158.5,315.8,157,316,155.6,316&#10;&#9;&#9;z M142.4,299.6c0.3,0,0.5,0.1,0.8,0.1c0.7,0.3,1.2,0.9,1.2,1.7c0.5,6.3,6.1,11,12.4,10.5c4.6-0.4,8.5-3.4,9.9-7.8&#10;&#9;&#9;c0.4-1,1.5-1.6,2.6-1.2c1,0.4,1.6,1.5,1.2,2.6c-0.4,1.2-1,2.3-1.7,3.3c2.4-1.5,4.2-3.6,4.2-6.3c-0.1-1.3-0.3-2.5-0.8-3.7&#10;&#9;&#9;c-0.5-1.5-0.8-3-0.9-4.5c-0.2-3.9,1.8-7.1,3.7-10.2c1.6-2.5,3-4.9,3.1-7.5c0-1.5-0.2-3.1-0.6-4.6c-0.6-2.5-1.1-5-0.3-7.7&#10;&#9;&#9;c0.6-1.8,1.6-3.5,2.9-4.9l0.4-0.5c7.6-10.2,10.4-23.3,7.8-35.7c-0.9-4.1-2.9-9.6-7.3-12.4c-2.2-1.3-4.9-1.7-7.4-1.1&#10;&#9;&#9;c-1.7,0.4-3.1,1.5-4,3c-0.5,1-1.7,1.4-2.7,0.9c-0.5-0.3-0.9-0.8-1.1-1.4c-0.5-2-2-3.5-3.9-4.2c-3.1-1.2-6.7-0.9-9.5,0.9&#10;&#9;&#9;c-4.9,3.2-7.4,9.3-9.6,15.7c-0.4,1-1.5,1.6-2.5,1.2c-0.2-0.1-0.3-0.1-0.5-0.2c-4.1-2.8-8.3-3.4-12.2-1.8c-4.8,1.9-8.5,7-9.9,13.2&#10;&#9;&#9;c-1.2,5.4,0.1,7.4,2.6,11.3c0.5,0.8,1.1,1.8,1.7,2.8c0.6,1,0.2,2.2-0.7,2.7c-0.1,0.1-0.2,0.1-0.3,0.1c-5.5,2.3-8.4,8.7-6.7,15&#10;&#9;&#9;c1.7,6.5,7,11.7,11.6,16.2c0.5,0.5,0.7,1.3,0.5,2c-1.1,3.5-2.2,7.2-1.8,10.7c0.3,2.9,2,6.3,5,7.2c3.8,1.1,7.9-2,11.4-5.1&#10;&#9;&#9;C141.4,299.7,141.9,299.6,142.4,299.6L142.4,299.6z"/>
	<path class="st3_meal-1-70" d="M213.4,131.3c-8.7-3.3-18.6-0.2-23.8,7.5c-12.4-5.6-27-0.1-32.6,12.3c-3.6,7.9-2.7,17.2,2.3,24.3&#10;&#9;&#9;c-7.9-1.1-15.2,4.4-16.3,12.3c-1,6.7,2.8,13.1,9.1,15.5c-3.8,2.1-5.8,6.7-5.8,11s1.7,8.6,4,12.3c3.7,6.1,9,11.5,15.9,13.4&#10;&#9;&#9;c7.2,2,14.8,0,21.9-2.4c6.9-2.3,13.9-5.2,18.5-10.9s5.7-14.7,0.6-19.8c9.9-1.6,16.7-10.9,15.1-20.9c-0.7-4.4-3-8.3-6.4-11.1&#10;&#9;&#9;c2.2,1.8,9-6.5,9.8-7.8c2.1-4,2.4-9.8,1.9-14.3C226.3,144.6,221.6,134.7,213.4,131.3z"/>
	<path class="st1_meal-1-70" d="M172.5,242.8c-2.3,0-4.6-0.3-6.8-0.9c-6.6-1.9-12.6-6.9-17-14.3c-2.9-4.8-4.3-9.1-4.3-13.3&#10;&#9;&#9;c0-4,1.4-7.8,4.1-10.7c-7.7-4.9-9.9-15-5.1-22.6c2.7-4.3,7.3-7.1,12.4-7.6c-4.6-9.2-3.4-21.1,3.1-29.1c7-8.5,19.6-11.8,29.9-7.9&#10;&#9;&#9;c5.7-7.4,16.6-10.5,25.3-6.9l0,0c8.9,3.7,14,14.3,15.2,23.2c0.8,5.8,0,11.6-2.1,15.5c-0.4,0.7-4.1,5.7-7.6,8&#10;&#9;&#9;c7.1,8.6,5.9,21.3-2.6,28.4c-1.9,1.6-4.1,2.8-6.5,3.6c3.6,6.1,1.9,14.6-2.4,19.9c-4.9,6-12.2,9-19.4,11.5&#10;&#9;&#9;C183.4,241.3,178,242.8,172.5,242.8z M157.5,177.3c-6.9-0.1-12.5,5.5-12.5,12.3c0,5.1,3.1,9.8,7.9,11.7c0.7,0.3,1.2,1,1.3,1.7&#10;&#9;&#9;c0.1,0.8-0.3,1.5-1,1.9c-2.9,1.6-4.8,5.3-4.8,9.3c0,3.4,1.2,7.1,3.7,11.3c3.9,6.5,9.1,10.9,14.7,12.5c6.6,1.9,13.8,0,20.7-2.4&#10;&#9;&#9;c6.6-2.2,13.4-5,17.6-10.2c3.9-4.7,5.1-12.8,0.7-17.1c-0.8-0.8-0.8-2,0-2.8c0.3-0.3,0.7-0.5,1.1-0.6c8.8-1.4,14.8-9.8,13.4-18.6&#10;&#9;&#9;c-0.6-3.8-2.6-7.3-5.6-9.8c-0.9-0.7-1-1.9-0.3-2.8c0.6-0.8,1.7-1,2.6-0.5c1.7-0.5,6.2-5.5,7.1-6.9c2-3.7,2.1-9.2,1.6-13.1&#10;&#9;&#9;c-1-7.8-5.4-16.9-12.8-20l0,0c-7.8-3-16.6-0.2-21.3,6.8c-0.5,0.9-1.6,1.2-2.5,0.8c-11.4-5.2-24.8-0.1-29.9,11.2&#10;&#9;&#9;c-3.3,7.3-2.5,15.8,2.1,22.4c0.6,0.9,0.4,2.1-0.4,2.8c-0.4,0.3-1,0.4-1.5,0.4C158.6,177.4,158.1,177.3,157.5,177.3L157.5,177.3z"/>
	<path class="st4_meal-1-70 targetColor" d="M254.2,225.7c0,0,30.8,7.7,26.1,20.1S269.4,276,260.8,269s-17.3-23.9-17.3-23.9L254.2,225.7z" style="fill: rgb(32, 200, 48);"/>
	<path class="st1_meal-1-70" d="M264.6,272.6c-1.9,0-3.7-0.8-5.1-2c-8.7-7.2-17.4-23.9-17.8-24.6c-0.3-0.6-0.3-1.3,0-1.9l10.7-19.4&#10;&#9;&#9;c0.4-0.8,1.4-1.2,2.2-1c0.9,0.2,22,5.6,27,15.1c1.3,2.3,1.4,5.1,0.5,7.6l-0.7,1.8c-4,10.5-8.5,22.3-15.1,24.1&#10;&#9;&#9;C265.8,272.5,265.2,272.6,264.6,272.6z M245.8,245.1c2,3.6,9.3,16.6,16.3,22.4c1.5,1.3,2.6,1.2,3.2,1c4.7-1.2,9.3-13.5,12.4-21.7&#10;&#9;&#9;l0.7-1.8c0.6-1.4,0.4-3-0.3-4.3c-3.2-6.1-16.4-10.9-22.9-12.7L245.8,245.1z"/>
	<path class="st4_meal-1-70 targetColor" d="M196.4,161.9c0,0-24.8-5-29.8,5.9s-25.1,61.6-16.1,93l16.1,7.3C166.7,268.1,191.4,168.3,196.4,161.9z" style="fill: rgb(32, 200, 48);"/>
	<path class="st1_meal-1-70" d="M166.6,270.1c-0.3,0-0.6-0.1-0.8-0.2l-16.1-7.3c-0.5-0.2-0.9-0.7-1.1-1.3c-10.1-35,15.1-91.9,16.2-94.4&#10;&#9;&#9;c5.5-12.3,30.9-7.3,32-7c0.7,0.1,1.2,0.6,1.5,1.3c0.2,0.7,0.1,1.4-0.3,1.9c-3.5,4.5-19.5,65.5-29.4,105.4c-0.1,0.6-0.5,1.1-1.1,1.3&#10;&#9;&#9;C167.3,270,167,270.1,166.6,270.1z M152.3,259.3l13,5.9c4-16.1,21.6-86.1,28.1-101.8c-7.7-1.1-21.8-1.7-24.9,5.2&#10;&#9;&#9;C159.7,188.3,145.1,232.3,152.3,259.3z"/>
	<path class="st4_meal-1-70 targetColor" d="M256.1,109.2c0,0-35.8-1.7-67.4,52.7c-53,91.1-22,159.4-22,159.4s-31.8,11.3-38.3,37l38.3-14.4l22.7,37.5&#10;&#9;&#9;c0,0,0.3-23.6-0.7-53.7c0,0,59.1-50.5,84.8-115.4S256.1,109.2,256.1,109.2z" style="fill: rgb(32, 200, 48);"/>
	<path class="st1_meal-1-70" d="M189.4,383.4c-0.7,0-1.4-0.4-1.7-1l-21.8-36l-36.8,13.8c-1,0.4-2.2-0.1-2.6-1.2c-0.1-0.4-0.2-0.8-0.1-1.2&#10;&#9;&#9;c5.8-22.9,30.4-34.6,37.6-37.6c-4.5-11.9-25.1-76.8,22.9-159.3c31.9-54.8,67.8-53.7,69.3-53.7c0.5,0,0.9,0.2,1.2,0.5&#10;&#9;&#9;c0.4,0.4,43.8,39.7,17.9,105.2c-24,60.7-77.7,109.5-84.6,115.6c1,29.4,0.7,52.6,0.7,52.9c0,0.9-0.6,1.7-1.5,1.9&#10;&#9;&#9;C189.7,383.3,189.6,383.4,189.4,383.4z M166.7,341.9c0.7,0,1.4,0.4,1.7,1l19,31.4c0-9.2-0.1-26.5-0.8-46.5c0-0.6,0.2-1.2,0.7-1.6&#10;&#9;&#9;c0.6-0.5,59.1-51,84.2-114.6c23.3-58.9-11.5-95.5-16.3-100.2c-5.1,0.2-36.8,3.3-64.9,51.7c-27.1,46.6-31.6,86.9-30.6,112.6&#10;&#9;&#9;c1.1,27.8,8.6,44.8,8.7,45c0.5,1,0,2.2-1,2.7c-0.1,0-0.1,0.1-0.2,0.1c-0.3,0.1-27.6,10.1-35.8,31.7l34.5-13&#10;&#9;&#9;C166.2,341.9,166.5,341.9,166.7,341.9z"/>
	<path class="st1_meal-1-70" d="M251.5,188.1c-32,0-52.1-29.5-52.3-29.8c-0.6-0.9-0.4-2.2,0.6-2.8c0.9-0.6,2.2-0.4,2.8,0.5&#10;&#9;&#9;c5.4,7.5,12.1,13.9,19.8,19c16.5,10.7,34,12,51.8,3.9c1-0.5,2.2,0,2.7,1c0.5,1,0,2.2-1,2.7C268.2,186.1,259.9,188,251.5,188.1z"/>
	<path class="st1_meal-1-70" d="M185.3,209.9c-1.1,0-2-0.8-2.1-1.9c0-0.9,0.6-1.8,1.5-2l43.5-13.4c1.1-0.3,2.2,0.3,2.5,1.3s-0.3,2.2-1.3,2.5&#10;&#9;&#9;l0,0l-43.5,13.4C185.7,209.8,185.5,209.9,185.3,209.9z"/>
	<path class="st1_meal-1-70" d="M188.7,329.6h-0.1c-13-0.9-20.7-3-23.1-6.1c-0.6-0.7-0.9-1.7-0.7-2.6c0.1-1.1,1-1.9,2.1-1.9s1.9,1,1.9,2.1&#10;&#9;&#9;c0.4,0.5,3.5,3.3,20.1,4.5c1.1,0,2,1,1.9,2.1C190.7,328.8,189.8,329.6,188.7,329.6L188.7,329.6z"/>
	<path class="st1_meal-1-70" d="M212,149.6c-1.1,0-2-0.9-2-2c0-0.9,0.6-1.7,1.5-2l18.9-5.5c1.1-0.3,2.2,0.3,2.5,1.4s-0.3,2.2-1.4,2.5&#10;&#9;&#9;l-18.9,5.5C212.4,149.6,212.2,149.6,212,149.6z"/>
	<path class="st1_meal-1-70" d="M225.7,154.6c-0.9,0-1.6-0.5-1.9-1.3l-6.8-19c-0.4-1,0.2-2.2,1.2-2.6s2.2,0.2,2.6,1.2l6.8,19&#10;&#9;&#9;c0.4,1-0.2,2.2-1.2,2.6c0,0,0,0,0,0C226.1,154.6,225.9,154.6,225.7,154.6z"/>
	<path class="st1_meal-1-70" d="M242.7,159.1c-0.9,0-1.6-0.5-1.9-1.4c-6.2-18.2,12.8-48.3,13.6-49.6c0.6-0.9,1.8-1.2,2.8-0.6&#10;&#9;&#9;c0.9,0.6,1.2,1.8,0.6,2.8c-0.2,0.3-18.8,29.8-13.2,46.2c0.4,1-0.2,2.2-1.2,2.5c0,0,0,0,0,0C243.1,159.1,242.9,159.1,242.7,159.1z"/>
	<path class="st1_meal-1-70" d="M173.7,245.7c-1.1,0.1-2.1-0.7-2.2-1.8s0.7-2.1,1.8-2.2l0,0l76.6-15.9c1.1-0.2,2.2,0.5,2.4,1.6&#10;&#9;&#9;s-0.5,2.2-1.6,2.4l-76.6,15.9C173.9,245.6,173.8,245.7,173.7,245.7z"/>
	<path class="st1_meal-1-70" d="M169.7,281.8c-1.1,0-2-0.8-2.1-1.9c0-0.9,0.6-1.8,1.5-2c23.1-6.6,51.3-14.4,53.5-14c1.1,0.2,1.8,1.2,1.7,2.3&#10;&#9;&#9;c0,0,0,0,0,0c-0.2,1-1.1,1.7-2.1,1.7c-3,0.2-33.4,8.6-51.9,13.9C170.1,281.7,169.9,281.7,169.7,281.8z"/>
	<circle class="st5_meal-1-70" cx="260.6" cy="338.6" r="32.9"/>
	<path class="st1_meal-1-70" d="M260.6,373.5c-19.3,0-34.9-15.6-34.9-34.9c0-19.3,15.6-34.9,34.9-34.9c19.3,0,34.9,15.6,34.9,34.9&#10;&#9;&#9;C295.5,357.9,279.9,373.5,260.6,373.5z M260.6,307.7c-17.1,0-30.9,13.8-30.9,30.9c0,17.1,13.8,30.9,30.9,30.9s30.9-13.8,30.9-30.9&#10;&#9;&#9;C291.5,321.5,277.7,307.7,260.6,307.7L260.6,307.7z"/>
	<path class="st1_meal-1-70" d="M264.5,328c-0.2,0-0.5,0-0.7-0.1c-1-0.4-1.6-1.5-1.2-2.6c0,0,0,0,0,0l3.8-10.2c0.4-1,1.5-1.6,2.6-1.2&#10;&#9;&#9;s1.6,1.5,1.2,2.6l-3.8,10.2C266.1,327.5,265.3,328,264.5,328z"/>
	<path class="st1_meal-1-70" d="M251.2,333.8c-0.3,0-0.6-0.1-0.8-0.2l-9.9-4.4c-1-0.5-1.5-1.6-1-2.7s1.6-1.5,2.7-1l9.9,4.4&#10;&#9;&#9;c1,0.4,1.5,1.6,1.1,2.6C252.8,333.4,252,333.9,251.2,333.8L251.2,333.8z"/>
	<path class="st1_meal-1-70" d="M244.8,356.9c-0.6,0-1.2-0.3-1.6-0.7c-0.7-0.8-0.6-2.1,0.2-2.8c0,0,0,0,0,0l6.4-5.4c0.9-0.7,2.1-0.6,2.8,0.2&#10;&#9;&#9;c0.7,0.9,0.6,2.1-0.2,2.8l0,0l-6.4,5.4C245.7,356.7,245.2,356.9,244.8,356.9z"/>
	<path class="st1_meal-1-70" d="M276.1,356.9c-0.6,0-1.2-0.3-1.6-0.8l-6.1-7.6c-0.7-0.9-0.5-2.1,0.3-2.8s2.1-0.5,2.8,0.3l6.1,7.6&#10;&#9;&#9;c0.7,0.9,0.6,2.1-0.3,2.8C277,356.7,276.6,356.9,276.1,356.9L276.1,356.9z"/>
	<path class="st1_meal-1-70" d="M273,336.5c-1.1,0.1-2-0.8-2.1-1.9c-0.1-1,0.6-1.8,1.5-2l9-2.7c1.1-0.3,2.2,0.3,2.5,1.4s-0.3,2.2-1.4,2.5&#10;&#9;&#9;l-9,2.7C273.4,336.5,273.2,336.5,273,336.5z"/>
	<circle class="st5_meal-1-70" cx="245.1" cy="345.3" r="32.9"/>
	<path class="st1_meal-1-70" d="M245.1,380.3c-19.3,0-34.9-15.6-34.9-34.9c0-19.3,15.6-34.9,34.9-34.9s34.9,15.6,34.9,34.9&#10;&#9;&#9;C280,364.6,264.4,380.2,245.1,380.3z M245.1,314.4c-17.1,0-30.9,13.8-30.9,30.9c0,17.1,13.8,30.9,30.9,30.9&#10;&#9;&#9;c17.1,0,30.9-13.8,30.9-30.9c0,0,0,0,0,0C276,328.3,262.2,314.4,245.1,314.4L245.1,314.4z"/>
	<path class="st1_meal-1-70" d="M249,334.8c-0.2,0-0.5,0-0.7-0.1c-1-0.4-1.6-1.5-1.2-2.6c0,0,0,0,0,0l3.8-10.2c0.4-1,1.5-1.6,2.6-1.2&#10;&#9;&#9;c1,0.4,1.6,1.5,1.2,2.6l-3.8,10.2C250.6,334.2,249.8,334.8,249,334.8z"/>
	<path class="st1_meal-1-70" d="M235.7,340.6c-0.3,0-0.6-0.1-0.8-0.2L225,336c-1-0.5-1.5-1.6-1-2.7c0.5-1,1.6-1.5,2.7-1l9.9,4.4&#10;&#9;&#9;c1,0.4,1.5,1.6,1.1,2.6C237.3,340.1,236.6,340.6,235.7,340.6L235.7,340.6z"/>
	<path class="st1_meal-1-70" d="M229.3,363.6c-1.1,0-2-0.9-2-2c0-0.6,0.3-1.2,0.7-1.6l6.4-5.4c0.9-0.7,2.1-0.6,2.8,0.3&#10;&#9;&#9;c0.7,0.9,0.6,2.1-0.3,2.8l0,0l-6.4,5.4C230.2,363.5,229.8,363.6,229.3,363.6z"/>
	<path class="st1_meal-1-70" d="M260.6,363.6c-0.6,0-1.2-0.3-1.6-0.8l-6.1-7.6c-0.7-0.9-0.5-2.1,0.3-2.8s2.1-0.5,2.8,0.3l6.1,7.6&#10;&#9;&#9;c0.7,0.9,0.6,2.1-0.3,2.8c0,0,0,0,0,0C261.5,363.5,261.1,363.6,260.6,363.6z"/>
	<path class="st1_meal-1-70" d="M257.6,343.2c-1.1,0-2-0.8-2.1-1.9c0-0.9,0.6-1.7,1.5-2l9-2.7c1.1-0.3,2.2,0.3,2.5,1.4&#10;&#9;&#9;c0.3,1.1-0.3,2.2-1.4,2.5l-9,2.7C257.9,343.2,257.8,343.3,257.6,343.2z"/>
	<path class="st3_meal-1-70" d="M319,345.4c-3.7,0.1-7.5-0.7-10.9-2.2c-5.5-2.6-10.4-8.8-9.1-15.6c1.2-6.1,6.6-9.9,11.7-13c3-1.9,6-3.7,9-5.5&#10;&#9;&#9;l0,0c14.8-8.8,33.9-13.7,43.2-1c5.4,7.4,6.4,16.7,2.6,24.4c-3.5,7.2-10.8,11.7-19.4,11.9c-1.9,0-3.7-0.1-5.6-0.2&#10;&#9;&#9;c-1.6-0.1-3-0.2-4.6-0.2c-2.6,0.1-5.1,0.3-7.7,0.8c-0.9,0.1-1.7,0.2-2.6,0.4C323.5,345.3,321.2,345.4,319,345.4z M321.7,312.5&#10;&#9;&#9;c-3,1.8-6,3.6-9,5.5c-4.5,2.8-9,5.9-9.8,10.4c-0.9,4.8,2.9,9.4,6.9,11.2c5,2.3,10.8,1.9,15.4,1.3l2.5-0.4c2.7-0.5,5.5-0.7,8.2-0.8&#10;&#9;&#9;h0.1c1.6,0,3.2,0.1,4.8,0.2c1.7,0.2,3.4,0.2,5.2,0.2c7.2-0.2,12.9-3.7,15.9-9.7c3.1-6.3,2.2-14.1-2.3-20.2&#10;&#9;&#9;C349.7,296.8,326.3,309.8,321.7,312.5L321.7,312.5z"/>
	<path class="st3_meal-1-70" d="M328.1,328.4c-2,0-3.9-0.5-5.6-1.5c-4.2-2.6-5.2-7.6-5.4-10.3c-0.6-6.9,1.8-13.7,6.5-18.8l0,0&#10;&#9;&#9;c10.2-10.7,28.6-9.6,42.4-3.8c5.9,2.5,10,5.6,12.6,9.5c3.4,5.2,3.4,11.9,0,16.2c-4.4,5.6-12.3,5.8-19.5,5.1&#10;&#9;&#9;c-6-0.5-12.8-1.1-18.9,0.6c-1,0.3-2.1,0.6-3.1,1C334.2,327.4,331.1,328.4,328.1,328.4z M326.5,300.5c-4,4.2-5.9,9.9-5.5,15.6&#10;&#9;&#9;c0.1,1.6,0.8,5.5,3.6,7.3c3,1.9,7,0.6,11.2-0.8c1.1-0.4,2.2-0.7,3.3-1c6.8-1.9,14-1.3,20.4-0.7s12.8,0.5,16-3.6&#10;&#9;&#9;c2.6-3.3,1.8-8.4-0.2-11.6s-5.6-5.9-10.8-8C351.9,292.4,335.4,291.3,326.5,300.5L326.5,300.5z"/>
	<path class="st1_meal-1-70" d="M289,297.2c-1.1,0.1-2.1-0.8-2.1-1.9s0.8-2.1,1.9-2.1c0.6-0.1,13.4-2,22-22c0.4-1,1.6-1.5,2.6-1.1&#10;&#9;&#9;c1,0.4,1.5,1.6,1.1,2.6l0,0c-9.5,22.3-24.6,24.4-25.2,24.4L289,297.2z"/>
	<path class="st1_meal-1-70" d="M305.6,285.9c-1.1,0-2-0.9-2-2c0-0.7,0.4-1.4,1-1.8c0.5-0.3,12.3-7.2,24-6c1.1,0.1,1.9,1.1,1.8,2.2&#10;&#9;&#9;c-0.1,1.1-1.1,1.9-2.2,1.8c-10.4-1-21.4,5.4-21.5,5.5C306.4,285.9,306,286,305.6,285.9z"/>
	<path class="st1_meal-1-70" d="M328.3,290.9c-0.4,0-0.8-0.1-1.2-0.4l-13-9.2c-0.9-0.6-1.1-1.9-0.5-2.8c0.6-0.9,1.9-1.1,2.8-0.5l13,9.2&#10;&#9;&#9;c0.9,0.6,1.1,1.9,0.5,2.8c0,0,0,0,0,0C329.6,290.6,329,290.9,328.3,290.9z"/>
	<path class="st1_meal-1-70" d="M315.4,291c-0.4,0-0.8-0.1-1.2-0.4c-2.5-1.8-10.6-0.5-12.5,0.2c-1,0.5-2.2,0.2-2.7-0.8&#10;&#9;&#9;c-0.5-0.9-0.3-1.9,0.5-2.5c1-0.9,12.5-3.4,17-0.1c0.9,0.6,1.1,1.9,0.5,2.8C316.6,290.7,316,291,315.4,291L315.4,291z"/>
	<path class="st1_meal-1-70" d="M281.6,285.9c-1.1,0-2-0.9-2-2c0-0.5,0.2-1,0.6-1.4c0.1-0.1,14.1-14.8,11.4-24.8c-0.3-1.1,0.4-2.2,1.4-2.4&#10;&#9;&#9;s2.2,0.4,2.4,1.4c3.3,12.1-11.8,27.9-12.4,28.6C282.7,285.7,282.2,285.9,281.6,285.9z"/>
	<path class="st1_meal-1-70" d="M289,276.3c-1.1,0-1.9-0.8-2-1.9l-1.2-17.1c-0.1-1.1,0.8-2.1,1.9-2.1c1.1-0.1,2.1,0.8,2.1,1.9l1.2,17.1&#10;&#9;&#9;c0.1,1.1-0.7,2.1-1.8,2.1c0,0,0,0,0,0L289,276.3z"/>
	<path class="st1_meal-1-70" d="M294.6,267.9c-0.4,0-0.7,0-1.1-0.1c-1.1-0.2-1.8-1.3-1.6-2.4s1.3-1.8,2.4-1.6l0,0c0.3,0,3.1,0.3,4.5-4.8&#10;&#9;&#9;c0.3-1.1,1.4-1.7,2.5-1.4c1.1,0.3,1.7,1.4,1.4,2.5C300.9,266.3,297.1,267.9,294.6,267.9z"/>
	<path class="st0_meal-1-70" d="M303.6,204.1c-1.6,4.5-6.2,7.1-9.2,10.8c-5.4,6.7-4.9,16.8-0.3,24.1s12.4,11.9,20.5,14.6c3,1,6.2,1.7,8.7,3.6&#10;&#9;&#9;c2.9,2,4.7,5.2,6.9,7.9c8.6,10.5,24.2,14.5,36.8,9.5c8.5-3.4,15.2-10.4,20.9-17.6c4-5,7.8-10.5,8.7-16.8&#10;&#9;&#9;c2.4-16.3-14.4-28.9-18.5-44.8c-2.5-9.8-0.1-20.6-4.2-29.8c-7.9-17.7-35.2-19.2-50.3-10.4c-6.2,3.6-10.3,10-14.1,16&#10;&#9;&#9;c-3.2,5.1-6.2,10-6.6,16.1C302.5,192.8,305.5,198.6,303.6,204.1z"/>
	<path class="st1_meal-1-70" d="M355.4,278.7c-10.3,0-20.1-4.5-26.8-12.4c-0.6-0.8-1.2-1.6-1.9-2.4c-1.3-2-2.9-3.7-4.7-5.2&#10;&#9;&#9;c-2.1-1.3-4.3-2.2-6.6-2.8l-1.6-0.5c-6.8-2.2-16.1-6.7-21.6-15.4c-5.3-8.6-5.1-19.4,0.5-26.4c1.2-1.4,2.5-2.7,3.9-3.9&#10;&#9;&#9;c2.1-2,4.2-3.9,5-6.3l0,0c1-2.8,0.5-5.8-0.1-9c-0.5-2.4-0.8-4.8-0.7-7.2c0.4-6.9,3.9-12.3,6.9-17.1c3.8-6,8.1-12.7,14.8-16.6&#10;&#9;&#9;c9.9-5.8,24.1-7.2,35.5-3.5c8.4,2.7,14.5,7.8,17.6,14.9c2.5,5.6,2.7,11.7,3,17.6c0,4.2,0.5,8.4,1.3,12.5c1.6,6.2,5.3,12.1,8.9,17.8&#10;&#9;&#9;c5.5,8.6,11.1,17.5,9.6,27.9c-1,6.8-5,12.6-9.1,17.8c-5.1,6.5-12.2,14.4-21.8,18.2C363.8,278,359.7,278.8,355.4,278.7z&#10;&#9;&#9; M305.4,204.7c-1.2,3.3-3.7,5.6-6.1,7.9c-1.2,1.1-2.4,2.3-3.5,3.5c-4.5,5.6-4.6,14.8-0.2,21.8c4.8,7.7,13.2,11.7,19.4,13.8l1.5,0.5&#10;&#9;&#9;c5.6,1.1,10.4,4.5,13.4,9.4c0.6,0.8,1.1,1.5,1.7,2.3c8,9.8,22.8,13.5,34.5,8.9c8.6-3.5,15.3-10.9,20.1-17c3.8-4.8,7.4-10,8.2-15.8&#10;&#9;&#9;c1.3-8.9-3.7-16.8-9-25.1c-3.8-6-7.7-12.1-9.4-18.9c-1-4.4-1.5-8.9-1.5-13.3c-0.2-5.8-0.4-11.2-2.6-16.1&#10;&#9;&#9;c-3.4-7.5-10.1-11-15.2-12.7c-10.4-3.3-23.3-2-32.3,3.2c-5.8,3.4-9.7,9.5-13.5,15.3c-2.9,4.6-6,9.3-6.3,15.2c0,2.1,0.2,4.2,0.6,6.3&#10;&#9;&#9;C306.2,197.2,306.8,200.9,305.4,204.7L305.4,204.7z"/>
	<path class="st2_meal-1-70" d="M333.3,183.7c-1.1,0-2-0.9-2-2c0-0.9,0.5-1.6,1.3-1.9l10.4-4c1-0.4,2.2,0.1,2.6,1.2s-0.1,2.2-1.2,2.6l0,0&#10;&#9;&#9;l-10.4,4C333.8,183.7,333.5,183.7,333.3,183.7z"/>
	<path class="st2_meal-1-70" d="M319,231.8c-1.1,0-2-0.9-2-2c0-0.6,0.3-1.2,0.7-1.6l9.4-7.9c0.8-0.7,2.1-0.6,2.8,0.2c0.7,0.8,0.6,2.1-0.2,2.8&#10;&#9;&#9;l0,0l-9.4,7.9C319.9,231.6,319.5,231.8,319,231.8z"/>
	<path class="st2_meal-1-70" d="M343.6,256.3c-0.8,0-1.6-0.5-1.9-1.2l-5.2-12.7c-0.4-1,0.1-2.2,1.1-2.6c1-0.4,2.2,0.1,2.6,1.1l0,0l5.2,12.7&#10;&#9;&#9;c0.4,1-0.1,2.2-1.1,2.6C344.2,256.2,343.9,256.3,343.6,256.3L343.6,256.3z"/>
	<path class="st2_meal-1-70" d="M362,199c-0.4,0-0.7-0.1-1-0.3c-1.7-1-8.1-2.1-12.2-2.6c-1.1-0.1-1.9-1.1-1.8-2.2s1.1-1.9,2.2-1.8&#10;&#9;&#9;c1.8,0.2,10.8,1.3,13.8,3.1c1,0.5,1.3,1.8,0.8,2.7C363.5,198.6,362.8,199,362,199L362,199z"/>
	<path class="st2_meal-1-70" d="M323.6,207.3c-0.6,0-1.2-0.3-1.6-0.8l-6.7-8.3c-0.7-0.9-0.6-2.1,0.3-2.8c0.9-0.7,2.1-0.6,2.8,0.3l6.7,8.3&#10;&#9;&#9;c0.7,0.9,0.6,2.1-0.3,2.8C324.6,207.1,324.1,207.3,323.6,207.3z"/>
	<path class="st2_meal-1-70" d="M355.5,231.8c-1.1,0-2-0.8-2.1-1.9c0-0.9,0.6-1.7,1.4-2l12.1-4c1.1-0.3,2.2,0.2,2.5,1.3s-0.2,2.2-1.3,2.5&#10;&#9;&#9;l-12.2,4C356,231.8,355.7,231.8,355.5,231.8z"/>
</g>
</svg>