<svg transform="scale(1)" version="1.1" id="V8xDc9xg3H" xmlns="http://www.w3.org/2000/svg" xmlns:xlink="http://www.w3.org/1999/xlink" x="0px" y="0px" viewBox="0 0 500 500" xml:space="preserve" class="pbimage_pbimage__wrapper__image__0LEis false"><title>Vegetables</title><style type="text/css"> .st0{fill:#FFFFFF;} .st1{fill:#000005;} .st2{fill:#59BE4C;}
 .st2{fill:#59BE4C;}
 .st1{fill:#000005;}
 .st0{fill:#FFFFFF;}</style><g id="vegetables"><path class="st0" d="M211.2,265.5c0,0-87.1,8.1-85.5,21.1s64.5,30.5,139.5,31.5s116-17.2,117.3-30.6S274.1,255.9,211.2,265.5z" fill="#FFFFFF"></path><path class="st1" d="M211.1,264.2c-3,0.3-5.9,0.6-8.9,0.9c-7.1,0.8-14.1,1.7-21.2,2.7c-8.6,1.2-17.2,2.6-25.7,4.3
		c-7.4,1.3-14.7,3.3-21.7,5.9c-2.5,0.9-4.9,2.1-7.1,3.5c-1.5,1.1-3.1,2.5-3.3,4.4c-0.2,1.7,0.8,3.4,1.8,4.6c1.8,2,3.9,3.6,6.3,4.9
		c7.4,4.4,15.8,7.1,24,9.5c11.8,3.4,23.8,6.1,35.9,8c14.9,2.5,30,4.2,45.1,5.2c16.5,1.2,33.1,1.5,49.7,0.9
		c13.8-0.5,27.6-1.9,41.3-4.1c10.4-1.7,20.6-4.2,30.5-7.6c6.7-2.4,13.5-5.2,19.2-9.5c3.4-2.5,7.1-5.9,7.8-10.2c0.6-3.6-4-6-6.6-7.3
		c-6-3.1-12.6-4.9-19.1-6.6c-9.3-2.4-18.7-4.2-28.1-5.8c-11.3-1.9-22.7-3.3-34.2-4.3c-12-1.1-24-1.8-36-2.1
		c-11.6-0.2-23.2,0-34.8,0.9c-5.2,0.4-10.4,1-15.5,1.8c-0.8,0.1-2.1,0.8-1.6,1.7s2.3,0.8,3.1,0.7c21.6-3.3,44.3-3.1,66.2-1.8
		c21.8,1.2,43.6,3.9,65,8.2c4.3,0.9,8.7,1.9,13,3c1.8,0.5,3.6,1,5.5,1.5s3.1,0.9,4.7,1.5c2.7,0.9,5.4,2,8,3.2c0.5,0.2,1,0.5,1.5,0.8
		s-0.3-0.2,0,0l0.3,0.2l0.7,0.5c0.7,0.5,1.4,1,2,1.6c0.2,0.2-0.2-0.3,0,0c0.1,0.1,0.1,0.1,0.2,0.2c0.1,0.1,0.2,0.2,0.3,0.4
		c0.2,0.3,0.3,0.5,0.5,0.8c0,0,0-0.2,0,0.1c0,0.1,0,0.2,0,0.4c0,0.3,0,0.7-0.1,1c0.1-0.4,0,0.2-0.1,0.3s-0.1,0.4-0.2,0.5
		c-0.1,0.4-0.3,0.8-0.5,1.2c-0.2,0.4-0.4,0.7-0.6,1c-0.1,0.1-0.5,0.7-0.2,0.3l-0.5,0.7c-3.2,4.1-8.2,6.9-12.7,9.1
		c-7.8,3.6-15.9,6.4-24.2,8.3c-11.4,2.7-23,4.6-34.7,5.6c-30.6,2.9-61.7,1.9-92.2-1.7c-13.4-1.5-26.7-3.7-39.8-6.6
		c-9.9-2.1-19.6-4.9-29.1-8.5c-1.8-0.7-3.6-1.5-5.4-2.3c-0.8-0.4-1.5-0.7-2.3-1.1l-1.1-0.6c-0.4-0.2-0.8-0.4-0.9-0.5
		c-1.2-0.7-2.4-1.5-3.5-2.3c-0.4-0.4-0.9-0.7-1.3-1.1c-0.2-0.2-0.4-0.4-0.6-0.5c0,0-0.3-0.4-0.1-0.1c-0.1-0.1-0.2-0.2-0.3-0.4
		c-0.6-0.7-1-1.4-1.4-2.2c-0.1-0.3,0.1,0.3,0,0c0-0.1-0.1-0.2-0.1-0.3s-0.1-0.4-0.1-0.5s0-0.3,0-0.5c0-0.1,0-0.1,0-0.2
		c0-0.4-0.1,0.2,0,0c0.1-0.3,0.2-0.6,0.4-0.9c0.1-0.1,0.4-0.6,0.1-0.2c0.1-0.2,0.3-0.3,0.4-0.5c0.3-0.3,0.6-0.6,0.9-0.9
		c0.3-0.3-0.4,0.3,0,0l0.2-0.2l0.6-0.4c0.4-0.3,0.9-0.6,1.4-0.8l0.8-0.4c0.1,0,0.6-0.3,0,0l0.6-0.3c1.3-0.6,2.6-1.1,3.9-1.6
		c3.1-1.1,6.2-2.1,9.4-2.8c7.9-2,16-3.5,24.1-4.8c12.5-2,25.2-3.7,38.2-5l2.1-0.2c0.8-0.1,2.4-0.4,2.4-1.5S211.8,264.1,211.1,264.2z
		" fill="#000005"></path><path class="st0" d="M229.2,328.6c0,0-17.5-70.6-35-81.2s-55.8,3.5-60.9,21.9s30.4,52.8,30.4,52.8L229.2,328.6z" fill="#FFFFFF"></path><path class="st2" d="M231.5,328.3c-1.4-5.6-3-11.2-4.6-16.8c-3.4-11.6-7.2-23.1-11.7-34.3c-2.2-5.5-4.7-10.8-7.4-16
		c-2.3-4.5-5.1-8.6-8.6-12.2c-8.5-8.7-23.1-8-34.1-5.4c-7,1.7-13.7,4.5-19.8,8.3c-5.1,3.2-10.1,7.5-12.9,12.9
		c-2.5,4.9-2.6,10-1.1,15.2c1.6,5.8,4.6,11.2,7.9,16.2c6,9,12.9,17.5,20.5,25.2c1.4,1.4,2.4,2.8,4.5,3l7.9,0.8l31.2,3.1l24.6,2.3
		l1.3,0.1c1.1,0.1,2.4-0.6,2.3-1.8s-1.4-2-2.6-2.1l-22.3-2.2l-35.2-3.5l-8.1-0.8l1.8,0.7c-0.8-0.8-1.7-1.6-2.5-2.5l-1.1-1.2
		l-0.7-0.7l-0.4-0.4c-0.1-0.1-0.2-0.2-0.2-0.2c-1.1-1.2-2.3-2.5-3.4-3.8c-5.7-6.3-10.8-13.1-15.2-20.3c-2.1-3.4-3.8-7-5.2-10.8
		c-1-3-1.7-6.7-1.2-9.6c1.3-7.8,8.6-13.6,15.1-17.4c8.2-4.8,17.5-7.6,27-8.1c4.1-0.3,8.2,0.3,12.1,1.6l0.6,0.2
		c0.4,0.2-0.5-0.2,0.2,0.1c0.4,0.2,0.9,0.4,1.3,0.6s0.9,0.5,1.3,0.7l0.4,0.2c0.4,0.3-0.5-0.3,0,0c1,0.8,2,1.6,2.9,2.6
		c-0.4-0.4,0.3,0.4,0.4,0.5c0.2,0.3,0.5,0.6,0.7,0.9c0.5,0.6,1,1.2,1.4,1.9c1,1.4,1.9,2.8,2.8,4.3c1.9,3.2,3.6,6.5,5.2,9.9
		c3.6,7.9,6.8,16,9.5,24.3c3.9,11.5,7.4,23.1,10.4,34.9c0.1,0.2,0.1,0.4,0.1,0.6C227.4,331.4,232.2,331.1,231.5,328.3z" fill="#59BE4C"></path><path class="st2" d="M173.3,195c0,0-4.3-20.8-9.3-36.8s4.5-29.8,5.3-57.4s30.3-34.5,37.1-7s-5.5,33.2-10.8,60.8
		S176.9,210.9,173.3,195z" fill="#59BE4C"></path><path class="st2" d="M175.8,195.3c-1.4-7-3.1-14-4.9-20.9c-1.4-5.6-3.1-11.1-4.6-16.6c-1.1-3.8-1.4-7.8-1.2-11.8
		c0.6-9.3,3.4-18.4,4.9-27.6c0.9-6,1.5-12,1.7-18c0.2-4.4,1.2-8.7,3.2-12.7c2.9-5.7,8.7-10.9,15.3-10.9c-0.2,0,0.6,0.1,0.1,0
		c-0.6-0.1-0.1,0,0,0c0.4,0.3-0.2-0.1,0.2,0c0.6,0.2,1.2,0.4,1.8,0.6c1.5,0.7,2.9,1.5,4.1,2.6c3,2.8,5.2,6.3,6.5,10.2
		c3.4,9.6,3.9,19.9,1.3,29.7c-1.3,4.2-2.7,8.3-4.4,12.3c-2,4.8-3.7,9.8-5.1,14.8c-1.6,6.1-2.6,12.4-4.2,18.5
		c-1.6,5.9-3.5,11.8-5.7,17.5c-1.6,4.3-3.6,8.5-6.1,12.3c-0.8,1.2-1.7,2.3-2.9,3.2c-0.4,0.2-0.8,0.4-1.2,0.6
		c-0.5,0.3,2.6-0.3,3.3,0.4c-0.2-0.2-0.4-0.3-0.6-0.5C176.5,197.9,176,196.7,175.8,195.3c-0.1-0.5-2-0.6-2.4-0.6
		c-0.2,0-2.6-0.2-2.5,0.1c0.2,1.4,0.8,2.8,1.7,3.9c1.2,1.3,3.6,1.4,5.2,1.4c3.1,0.1,5-2.6,6.5-5c2.6-4.3,4.8-8.9,6.4-13.6
		c2.3-6.1,4.2-12.3,5.7-18.7c1.6-6.4,2.6-12.9,4.6-19.1c1.5-4.9,3.5-9.6,5.3-14.4c1.7-4.1,3.1-8.4,3.9-12.8c0.9-5.1,0.9-10.3,0-15.5
		c-1.3-8.7-4.1-18.8-12.7-23c-6.6-3.2-15.3-2.9-21.2,1.6c-3,2.3-5.3,5.4-6.8,8.9c-2.1,4.6-2.5,9.4-2.7,14.4
		c-0.3,6.3-1.1,12.5-2.2,18.7c-0.9,5-2.1,9.9-3,14.9c-0.9,4.2-1.4,8.5-1.3,12.8c0.1,4.9,1.7,9.3,3,14c2.8,9.8,5.2,19.7,7.3,29.6
		l0.4,1.8C171,195.7,175.8,195.3,175.8,195.3z" fill="#59BE4C"></path><path class="st2" d="M141.6,237.4c4.8-2.1,7.3-25.4-1.4-41.8s-4.3-11.3,0.6-12.9s-13.4-12.7-15.8-20.4s14.2-5.2,3.3-16.4
		S107,86.9,95.1,107.1s-8.9,56.2,0.5,59.8s-3,4.3,10.5,24.9S128.5,243.2,141.6,237.4z" fill="#59BE4C"></path><path class="st2" d="M143.5,237.5c1.8-0.9,2.7-2.6,3.3-4.4c0.9-2.9,1.5-5.9,1.6-8.9c0.6-8.2-0.6-16.3-3.4-24
		c-1.6-4.1-3.9-7.9-5.7-11.8c-0.6-1.3-1.8-3.5-1.4-4.9c0.1-0.3,0.2-0.2-0.1-0.1c-0.6,0.2-1.2,0.3-1.8,0.4c0.5,0,0,0-0.1,0
		c0.8,0,1.6,0,2.4-0.1c1.2-0.1,2.5-0.3,3.7-0.6c0.8-0.2,1.9-0.5,2.2-1.4c0.4-1.4-1.6-3.2-2.5-4.1c-2.1-2.1-4.4-4.1-6.5-6.1
		c-2.3-2-4.4-4.3-6.1-6.8c-1.1-1.6-2.3-3.9-1.3-5.8c1.5-2.9,6.5-3.2,6.9-6.8c0.3-2.6-2.3-5.1-3.9-6.8c-1.5-1.6-2.7-3.4-3.8-5.4
		c-5.8-9.9-9.2-21-15.2-30.8c-1.9-3-4.4-7-8.3-7.5c-2.5-0.3-5,0.2-7.1,1.6c-1.9,1.5-3.4,3.4-4.4,5.6c-3.4,6.7-5.6,13.9-6.4,21.4
		c-1,7.2-0.9,14.5,0.1,21.7c0.7,4.8,1.9,10.6,5.4,14.2c1.3,1.3,2.9,1.7,4.4,2.6c0.9,0.4,1.6,1.3,1.6,2.4c0,1.3-0.3,2.7-0.2,4
		c0.1,2.5,0.6,5,1.5,7.3c1.6,4.2,4,7.9,6.4,11.7s4.4,7.4,6.4,11.3c3.9,7.3,7.4,14.9,11.8,21.9c2.7,4.4,6.4,10.2,11.8,11.5
		C137.6,239.1,140.7,238.8,143.5,237.5c0.8-0.4,0.8-0.8-0.1-0.9c-1.2-0.1-2.4,0.1-3.5,0.5c-0.1,0-0.8,0.3-0.5,0.2c-0.5,0.2,0,0,0,0
		c-0.2,0.2-0.1,0,0.1,0c-0.4,0,0.5,0.2,0.1,0c0.3,0.1-0.4,0-0.4,0c-1-0.2-2-0.6-2.9-1.1c-2.2-1.5-4.2-3.4-5.7-5.6
		c-4.5-6-7.7-12.9-11.1-19.5c-1.9-3.8-3.9-7.5-5.9-11.2s-4.6-7.4-6.8-11.2c-2.8-4.8-5.5-10.2-5.1-16c0.2-1.1,0.3-2.2,0.1-3.3
		c-0.4-1.1-1.2-1.9-2.3-2.3c-1.6-0.8-3-1.3-4.2-2.7c-1.4-1.8-2.4-3.8-3-6c-1.8-6.1-2.7-12.4-2.5-18.8c0-7.4,1-14.7,3-21.8
		c1-3.5,2.4-6.9,4.2-10c1-1.8,2.2-3.8,3.9-5c0.1,0,0.5-0.3,0.3-0.2c0.1,0,0.2,0,0,0s-0.3,0.1-0.8,0.1H100c0.2,0-0.4-0.1-0.1,0
		s-0.2-0.1,0.2,0c0.2,0,0.3,0.1,0.5,0.1c0.3,0.1,0.6,0.3,0.9,0.4c1.5,1,2.8,2.3,3.8,3.8c3,4.2,5.2,8.9,7.4,13.6
		c2.4,5.2,4.7,10.6,7.3,15.7c1.1,2.2,2.3,4.4,3.7,6.4c1.4,2.1,3.3,3.8,4.8,5.8c1,1.5,2.1,3.5,0.9,5.2c-0.9,1.3-2.6,2-3.9,2.9
		s-2.7,2.1-2.9,3.9c-0.2,2.3,1.4,4.5,2.8,6.1c3.6,4.6,8.4,8,12.3,12.2c0.7,0.6,1.2,1.4,1.6,2.2c0.1,0.2,0.2,0.5,0.2,0.8
		c0,0.1-0.2,0.5-0.2,0.4s0.1-0.1,0.4-0.1c-0.6,0.2,0.3-0.1-0.1,0s0.6-0.1,0,0c0.9-0.1,0.1,0-0.1,0c0.7,0-0.1,0-0.4,0h-1.1
		c-1.3,0.1-4.4,0.2-4.9,1.8s0.9,3.8,1.6,5.1c1.8,3.8,4,7.4,5.5,11.4c1.4,3.8,2.4,7.8,3,11.9c0.9,6.6,1.1,13.9-0.9,20.4
		c-0.3,1-0.7,2-1.2,2.9c-0.2,0.4-0.4,0.7-0.7,1c-0.1,0.1-0.2,0.2-0.4,0.4c0,0-0.4,0.2,0,0c-0.8,0.4-0.8,0.7,0.1,0.8
		C141.2,238.1,142.4,237.9,143.5,237.5z" fill="#59BE4C"></path><path class="st2" d="M152.2,193.8c0,0,7.4-20,4-28.5s0.1-15.7-1.6-25.2s-8.2-27.6-4.8-33.8s11.4-43.3-12.4-51.9
		s-35.4,38.7-20.5,50.9s20,26.8,20,37.5s4,11.7,6.5,19.3S143.4,196.1,152.2,193.8z" fill="#59BE4C"></path><path class="st2" d="M154.1,195.4c1.2-3.4,2.3-6.9,3.1-10.5c0.8-3,1.3-6.1,1.6-9.2c0.4-2.7,0.2-5.4-0.4-8c-0.6-1.8-1.1-3.6-1.6-5.4
		c-0.3-2-0.4-4.1-0.3-6.1c0.2-4.3,0.7-8.7,0.2-13c-0.8-6.8-3.1-13.4-4.6-20.1c-0.8-3.2-1.2-6.5-1.4-9.8c-0.1-2,0.4-4.1,1.2-5.9
		c1.3-3,2.2-6.3,2.7-9.5c1.8-9.7,2-20.5-2.1-29.6c-2.5-5.3-6.5-9.7-11.4-12.8c-4.1-2.6-9.2-4.4-14.1-3.3c-9,2-14.2,11.5-16.6,19.6
		c-2.6,8.8-3.4,19.5,1,27.9c1.1,2,2.5,3.8,4.2,5.3c3.1,2.6,5.9,5.4,8.6,8.4c4.6,5.6,7.9,12.1,9.7,19.1c0.7,2.8,1.1,5.7,1.1,8.6
		c-0.1,3.4,0.5,6.9,1.7,10.1c1.1,2.5,2.7,4.7,3.8,7.2c0.9,2.1,1.5,4.3,1.8,6.5c0.6,5.2,0.6,10.6,1.2,15.8c0.5,4.4,1.1,9.4,4.6,12.5
		c1.6,1.4,3.6,2.9,5.8,2.3c0.6-0.1-0.8-1.4-1-1.6c-0.5-0.4-1.9-1.8-2.6-1.6c-0.3,0.1-0.7,0.1-1,0.1c-0.1,0-0.9-0.2-0.9-0.2
		c0.2-0.1,1,0.7,1.2,0.8s0.3,0.3,0.5,0.4s0,0,0,0s-0.1-0.1-0.2-0.3s-0.2-0.4-0.3-0.6c-0.8-1.9-1.4-3.9-1.6-6
		c-0.8-5.2-0.9-10.4-1.3-15.6c-0.1-2.1-0.4-4.2-0.8-6.2c-0.7-2.5-1.7-4.9-3.1-7.1c-1.4-2.2-2.4-4.5-3.1-7c-0.7-3.2-0.5-6.6-0.8-9.9
		c-0.7-6.3-2.7-12.4-5.9-17.9c-1.9-3.3-4.1-6.5-6.7-9.3c-1.4-1.6-2.9-3.2-4.5-4.7c-0.8-0.7-1.5-1.4-2.3-2.1l-1.4-1.2l-0.7-0.6
		c0.2,0.2,0.2,0.3,0,0s0.1,0.1,0.1,0.1l-0.3-0.3l-0.3-0.3c0,0,0.2,0.2,0,0c-0.3-0.3-0.5-0.7-0.8-1c-0.5-0.8-1-1.6-1.4-2.4
		c-0.8-1.9-1.5-3.9-1.8-5.9c-0.8-4.7-0.8-9.4,0-14.1c1.4-8.6,5.1-18.5,12.6-23.6c3.4-2.3,7.5-3.1,11.5-2.2c2.3,0.6,4.4,1.5,6.4,2.9
		c-0.3-0.2,0.3,0.2,0.4,0.3c0.2,0.2,0,0,0,0l0.4,0.3c0.1,0.1,0.3,0.2,0.4,0.4c0.2,0.2,0.4,0.5,0.6,0.6c0.7,0.8,1.4,1.8,2,2.7
		c5.3,8.3,5.5,19.3,4.3,28.8c-0.4,3.7-1.3,7.4-2.5,11c-0.4,1.2-1,2.2-1.4,3.3c-0.7,2.4-0.8,4.9-0.4,7.4c0.7,6.7,2.7,13.2,4.3,19.7
		c0.9,3.3,1.5,6.6,1.7,10c0.2,4.1-0.4,8.2-0.4,12.3c0,2,0.2,4,0.6,6c0.4,1.6,1.1,3,1.4,4.6c0.5,2.7,0.5,5.5,0.1,8.2
		c-0.7,5.3-1.9,10.6-3.7,15.7c-0.3,0.9-0.6,1.8-0.9,2.7C149.8,193.4,154.1,195.7,154.1,195.4z" fill="#59BE4C"></path><path class="st1" d="M151.8,264.4c2.7,2.3,6.1,3.6,9.6,3.5c4.2,0.1,8.4-1.1,11.9-3.4c0.8-0.6-0.7-0.5-1-0.5c-1.2,0-2.3,0.4-3.3,0.9
		c-0.5,0.4-1,0.7-1.6,1l-0.6,0.3l-0.3,0.1h-0.1c0.3-0.1-0.4,0.1-0.1,0s-0.3,0-0.4,0.1c0.3,0-0.4,0-0.4,0c-0.6,0-1.3,0-1.9-0.1
		c-2.7-0.3-5.2-1.5-7.2-3.3c-0.2-0.2-1-0.1-1.2,0c-0.6,0.1-1.3,0.2-1.9,0.4C153.1,263.4,151.4,263.9,151.8,264.4L151.8,264.4z" fill="#000005"></path><path class="st1" d="M104.2,140.3c1.2,3.6,2.5,7.1,3.8,10.7c3.1,8.8,6.3,17.5,9.5,26.2c4.1,11.1,8.4,22.3,12.7,33.3
		c4.2,10.6,8.5,21.3,13.2,31.7c3.4,7.5,6.8,15.3,11.4,22.2c0.4,0.5,0.7,1,1.1,1.6c0.6,0.8,1.8,1.9,3,1.4s0.8-1.9,0.2-2.7
		c-0.8-1.1-1.6-2.3-2.4-3.5c-0.4-0.7-0.8-1.4-1.2-2.1l-0.6-1.2l-0.3-0.6c-0.1-0.2-0.4-0.7-0.1-0.2c-2.1-3.9-4-7.9-5.9-12
		c-4.7-10.2-8.9-20.6-13.1-31c-4.4-11.1-8.7-22.2-12.8-33.3c-3.4-9.1-6.7-18.3-10-27.5c-1.5-4.3-2.9-8.7-4.6-13c0-0.1,0-0.1-0.1-0.2
		c-0.4-1.2-1.5-2-2.8-2.1C104,138.1,103.9,139.3,104.2,140.3L104.2,140.3z" fill="#000005"></path><path class="st1" d="M131.5,82.3c1.8,6.2,3.4,12.4,4.9,18.6c3.6,14.6,6.8,29.3,9.4,44c1.5,8.6,2.9,17.3,3.9,26
		c1.1,9.1,1.7,18.3,2.3,27.5c1.2,15.9,2.8,31.9,4.9,47.7c0.9,6.6,1.6,13.3,3.1,19.8c0,0.1,0,0.2,0,0.3c0.4,1.9,5.2,2.8,4.8,0.7
		c-1-5.3-1.8-10.6-2.5-15.9c-2.1-14.8-3.7-29.6-4.9-44.5c-0.8-9.4-1.2-18.9-2.2-28.3c-0.9-8.8-2.1-17.5-3.5-26.1
		c-2.5-15.4-5.7-30.8-9.4-46c-1.8-7.6-3.7-15.2-5.9-22.8c0-0.1-0.1-0.2-0.1-0.3c-0.4-1.1-1.4-1.8-2.6-1.9
		C133,80.9,131.1,81.1,131.5,82.3L131.5,82.3z" fill="#000005"></path><path class="st1" d="M169.2,265.6c0.7-4.5,1.4-9,2.1-13.6c1.7-11.1,3.4-22.2,5-33.3c2.1-14,4.1-27.9,6.1-41.9
		c1.9-13.2,3.6-26.4,5.2-39.6c1.1-8.8,2.2-17.6,2.6-26.4c0-0.6,0-1.2,0-1.8c0-0.3-4.9-0.1-4.9,0.7c0,8-1.2,16.1-2.1,24.1
		c-1.5,12.9-3.2,25.8-5,38.7c-2,14.1-4,28.1-6.1,42.2c-1.7,11.6-3.5,23.2-5.2,34.9c-0.6,3.8-1.1,7.5-1.7,11.3
		c-0.2,1.1-0.4,2.3-0.5,3.5c-0.2,0.6-0.3,1.2-0.3,1.8c0,0.1,0,0.2,0,0.2C164.3,266.4,169.1,266.5,169.2,265.6L169.2,265.6z" fill="#000005"></path><path class="st2" d="M278.2,295.7c0,0-23-142.6,45.8-200.2c0,0-49.4,84.5-42.2,194.9L278.2,295.7z" fill="#59BE4C"></path><path class="st2" d="M280.7,295.6c-0.8-4.8-1.3-9.7-1.8-14.5c-1.2-12.1-1.8-24.6-1.9-36.6c-0.2-16.5,0.9-32.9,3.1-49.2
		c2.4-17.4,6.4-34.8,13.1-51.1c6.5-16,15.5-31,28-43c1.6-1.5,3.2-2.9,4.8-4.3l-4.3-2.2c-1.8,3-3.3,6.2-4.9,9.3
		c-4.2,8.5-8,17.3-11.5,26.1c-5.2,13.2-9.6,26.7-13.3,40.4c-4.6,16.9-8.1,34.2-10.4,51.6c-2.6,20.1-3.6,40.5-2.7,60.7
		c0.1,2.6,0.2,5.3,0.4,7.9l0.2-1l-3.6,5.3c-0.7,1,0.4,2.3,1.3,2.6c1.2,0.5,2.5,0.2,3.3-0.9c1.3-1.7,2.5-3.4,3.5-5.2
		c0.5-1,0.1-2.5,0-3.5c-0.1-1.4-0.1-2.9-0.2-4.3c-0.1-2.8-0.2-5.7-0.3-8.5c-0.2-10.8,0.1-21.6,0.9-32.3c1.5-19.3,4.4-38.5,8.8-57.4
		c3.6-15.5,8.2-30.7,13.7-45.6c3.8-10.4,8-20.6,12.8-30.5c2-4.3,4.4-8.4,6.5-12.7c0-0.1,0.1-0.1,0.1-0.2c0.4-1,0-2.1-1-2.5
		c0,0,0,0-0.1,0c-1-0.6-2.3-0.5-3.2,0.3c-13.5,11.3-23.7,26.1-30.9,42.1c-7.4,16.3-12.1,33.8-15,51.4c-2.7,16.6-4,33.5-4.1,50.3
		c-0.1,13.2,0.4,26.4,1.6,39.6c0.4,4.1,0.8,8.2,1.3,12.3c0.2,1.9,0.4,3.8,0.8,5.7c0,0.1,0,0.2,0,0.2
		C276.2,298.3,281.1,298.3,280.7,295.6z" fill="#59BE4C"></path><path class="st2" d="M276.5,313c0,0-3-144.4,65.6-192.1c0,0-54.5,76.9-61.7,187.3L276.5,313z" fill="#59BE4C"></path><path class="st2" d="M278.4,313.9c-0.1-4.9,0-9.8,0.2-14.7c0.4-12.3,1.4-24.5,2.8-36.8c1.8-16.2,4.8-32.2,8.7-48
		c4.3-16.9,10-33.6,18.1-49.2c7.5-14.5,17.4-28.3,30.2-38.6c1.6-1.2,3.2-2.4,4.8-3.6l-2.8-4c-2,2.8-3.8,5.7-5.5,8.6
		c-4.9,8-9.4,16.1-13.6,24.4c-6.2,12.3-11.8,25-16.8,37.9c-6.2,16.2-11.5,32.8-15.6,49.7c-4.9,19.6-8.2,39.5-10,59.6
		c-0.2,2.7-0.4,5.3-0.6,8l0.3-0.9l-3.8,4.7c-1.4,1.7,1.6,5.7,3.2,3.7l2-2.5c0.8-0.8,1.5-1.7,2.1-2.7c0.3-1.3,0.4-2.7,0.4-4.1
		c0.1-1.5,0.2-3,0.4-4.4c0.2-2.8,0.5-5.5,0.8-8.3c1.2-10.7,2.8-21.3,4.9-31.8c3.7-18.7,8.7-37.2,14.9-55.2
		c5.1-14.7,11-29.1,17.7-43.1c4.7-9.8,9.5-19,15-28.2c2.3-3.9,4.8-7.7,7.3-11.5l0.1-0.2c0.5-1,0.4-2.2-0.3-3c-0.5-0.7-1.6-1.7-2.5-1
		c-13.8,9.6-24.5,22.9-32.8,37.5c-8.7,15.3-15,32-19.7,48.9c-4.5,16.3-7.8,32.9-9.9,49.6c-1.7,12.9-2.9,25.9-3.4,39
		c-0.3,6-0.5,12.1-0.4,18.1c0,0.1,0,0.2,0,0.2c0,1.3,0.6,2.5,1.8,3.1c0.6,0.4,1.5,0.3,2-0.3C278.3,314.6,278.4,314.2,278.4,313.9z" fill="#59BE4C"></path><path class="st2" d="M276.5,324c0,0,12.6-143.7,85.8-182c0,0-62.4,69.1-81.5,177.8L276.5,324z" fill="#59BE4C"></path><path class="st2" d="M279,324c0.4-4.9,1.1-9.7,1.8-14.6c1.8-12.1,4-24.2,6.8-36.1c3.6-15.9,8.3-31.6,14-46.9
		c6.1-16.1,13.5-31.9,23.1-46.2c9.2-13.7,20.5-26.1,34.6-34.8c1.7-1,3.4-2,5.1-2.9l-4.6-0.8c-2.4,2.7-4.7,5.6-6.9,8.4
		c-6.1,7.8-11.8,16-17.2,24.3c-18.1,28.1-32.7,58.4-43.4,90.1c-3.3,9.9-6.2,19.8-8.7,29.9c-1.3,5.3-2.5,10.7-3.6,16
		c-0.6,2.8-1.2,5.5-1.6,8.4c-0.2,1.1-1.3,1.9-2.1,2.6l-2.4,2.2c-0.7,0.7,1.5,1.2,1.8,1.2c1.1,0.2,2.2,0,3.1-0.7l2.3-2.3
		c0.8-0.8,1.9-1.5,2.1-2.6c1.1-5.4,2-10.8,3.2-16.1c2.3-10.4,5.1-20.6,8.2-30.8c5.7-18.2,12.7-35.9,20.9-53.1
		c6.6-13.9,14.1-27.3,22.2-40.3c5.6-9,11.6-17.7,18.1-26.2c1.9-2.5,3.8-4.9,5.8-7.3c1-1,1.9-2.1,2.7-3.2c0,0,0.1-0.1,0.1-0.1
		c0.6-0.7-1.2-1.1-1.5-1.2c-1.1-0.2-2.1-0.1-3.1,0.4c-14.7,7.7-26.8,19.6-36.5,32.9c-10.2,14-18.1,29.6-24.6,45.6
		c-6.1,15.5-11.1,31.3-15,47.5c-3.1,12.7-5.6,25.5-7.6,38.4c-0.6,4-1.2,8.1-1.7,12.2c-0.3,1.9-0.5,3.8-0.6,5.7c0,0.1,0,0.2,0,0.2
		C273.8,325.3,278.8,325.5,279,324z" fill="#59BE4C"></path><path class="st0" d="M318.6,197.9c0,0-15.4-10.8-34.1,5.9s-39.1,90.8-24.5,105.5s73.4,61.5,97,17.3s45.7-82.3,26.6-99.9
		c0,0-1.7-26.5-30.3-20.8C353.4,205.9,344.8,187.2,318.6,197.9z" fill="#FFFFFF"></path><path class="st1" d="M319.6,196.2c-8.7-6.1-20.6-4.7-29.5,0.3c-5.3,3-9.8,7.3-13.3,12.3c-3.1,4.6-5.8,9.4-8,14.4
		c-5.5,12.2-9.7,25-12.6,38.1c-1.4,6.4-2.5,12.8-3.1,19.3c-0.6,5.3-0.6,10.7,0,16c0.5,4.3,1.5,8.7,4,12.3c1.1,1.5,2.4,2.8,3.8,4
		c1.6,1.5,3.2,2.9,4.8,4.3c9,7.8,18.7,14.5,29.2,20.2c10.7,5.7,23,10.6,35.4,10c5.8-0.2,11.4-2,16.3-5.1c5.8-3.8,9.8-9.4,13-15.4
		c9.5-17.9,19.7-35.6,27.1-54.5c2.8-7.1,5.2-14.5,6-22.1c0.7-6.1,0.2-12.5-2.6-18c-1.4-2.7-3.2-5.1-5.5-7.1l1.1,2.2
		c-0.7-10.3-7.4-20.3-17.4-23.4c-5.2-1.6-10.8-1.2-16.1-0.2l3,1.6c-1.3-2.6-3.1-4.9-5.3-6.8c-4.7-4.1-10.8-6.3-17-6.2
		c-5.3,0.1-10.6,1.3-15.5,3.4c-2.5,1-0.1,5.3,2.2,4.4c7-2.8,14.8-4.5,22.1-1.9c0.3,0.1,0.8,0.3,1.4,0.6s1.2,0.6,1.8,1l0.7,0.4
		c0.4,0.2,0,0,0,0l0.4,0.3c0.5,0.3,0.9,0.7,1.4,1s0.8,0.7,1.1,1s0.5,0.5,0.1,0.1c0.2,0.2,0.3,0.4,0.5,0.6c0.5,0.6,1,1.2,1.5,1.9
		c0.2,0.3,0.8,1.3,0.3,0.4c0.1,0.2,0.3,0.4,0.4,0.6s0.2,0.4,0.3,0.6c0.5,1.1,1.7,1.8,3,1.6c3.8-0.8,7.7-1,11.6-0.4
		c1.4,0.3,2.8,0.7,4.1,1.2c0.6,0.3,1.2,0.6,1.8,0.9c0.3,0.2,0.6,0.4,0.9,0.6c0.1,0,0.4,0.2,0,0l0.5,0.4c0.5,0.4,1,0.7,1.4,1.1
		l0.7,0.7l0.3,0.3c-0.5-0.5,0,0,0.1,0.1c0.8,0.9,1.5,1.8,2.1,2.8c-0.4-0.6,0.1,0.2,0.2,0.4l0.4,0.7c0.3,0.5,0.5,1,0.8,1.5
		s0.4,0.9,0.6,1.4c0.1,0.3,0.2,0.6,0.1,0.1c0.1,0.3,0.2,0.6,0.3,0.9c0.5,1.4,0.8,2.9,1.1,4.4c0.1,0.4,0.1,0.9,0,0.2
		c0,0.2,0,0.4,0.1,0.6c0,0.9,0.4,1.7,0.9,2.3c0.3,0.3,0.7,0.6,1,1c-0.2-0.2,0.5,0.5,0.6,0.6c0.5,0.6,1,1.2,1.4,1.9
		c0.1,0.2,0.2,0.3,0.3,0.5c-0.2-0.4,0,0,0,0.1c0.2,0.4,0.4,0.7,0.6,1.1c0.4,0.7,0.7,1.5,1,2.2c0,0,0.1,0.4,0,0.1
		c0.1,0.2,0.1,0.4,0.2,0.6c0.1,0.4,0.2,0.7,0.3,1.1c0.2,0.8,0.4,1.6,0.5,2.4c0.2,1.5,0.4,3.1,0.4,4.7c0,8.2-2.6,16.3-5.4,23.9
		c-3.9,9.9-8.4,19.6-13.4,29c-2.8,5.4-5.6,10.8-8.5,16.1c-2.6,4.9-5.1,10.1-8.1,14.8c-3.6,5.7-8.7,10.5-15.1,12.9
		c-12.5,4.6-26.5,0.2-38-5.4c-11.9-5.9-22.9-13.3-32.9-22.1c-1.8-1.5-3.5-3.1-5.1-4.7c-0.3-0.3-0.7-0.7-1-1
		c-0.5-0.5,0.1,0.2-0.1-0.1s-0.3-0.4-0.5-0.6l-0.4-0.5c-0.1-0.2-0.5-0.9-0.1-0.2c-0.2-0.5-0.5-0.9-0.7-1.3s-0.4-0.9-0.6-1.3
		c0-0.1-0.1-0.4,0,0.1c0-0.1-0.1-0.3-0.1-0.4c-0.1-0.3-0.2-0.6-0.3-0.9c-0.3-1.1-0.6-2.3-0.8-3.4l-0.1-0.9c0-0.2,0-0.3-0.1-0.5
		c0.1,0.4,0,0.1,0,0c-0.1-0.7-0.2-1.4-0.2-2.1c-0.1-1.4-0.2-2.8-0.2-4.3c-0.2-14.2,3.1-28.6,7.1-42.1c2.1-7.1,4.6-14,7.5-20.8
		c2.5-5.8,5.5-11.4,9-16.6c1.3-2,2.8-3.8,4.5-5.4c3.4-3.4,7.5-6.1,12-7.9c3.5-1.4,7.2-2,11-1.8c1.4,0.1,2.8,0.3,4.1,0.7
		c0.6,0.2,1.2,0.3,1.8,0.5l0.7,0.2c0.5,0.2-0.3-0.1,0,0l0.5,0.2c0.7,0.3,1.3,0.6,1.9,1c0.3,0.2,1.2,0.8,0.3,0.1
		c0.9,0.6,2.2,1,2.9-0.1C321,198.4,320.7,197,319.6,196.2z" fill="#000005"></path><path class="st1" d="M332.9,178c0,0,5.5,7.6,3.2,16.7s-12.3,15.8-10.3,16.6s10.5,5,20.7,4.7s12.2,0.6,9.1-3.9s-1.6-29.1-11-35.9
		C344.5,176.2,334,170.5,332.9,178z" fill="#000005"></path><path class="st1" d="M331.2,179l0.1,0.2c0.1,0.1,0.3,0.4,0,0s0.1,0.1,0.1,0.2c0.5,0.8,0.9,1.7,1.3,2.6c1.1,2.7,1.7,5.6,1.5,8.5
		c-0.3,5.9-4.1,10.7-7.9,15c-1.1,1.2-2.6,2.5-3.1,4.1c-0.3,1.1,0.1,2.4,1,3.1c0.2,0.2,0.4,0.3,0.7,0.4c0,0,1,0.4,0.4,0.2
		c-0.4-0.2-0.2-0.1-0.1,0l1,0.4c5.5,2.5,11.4,4,17.4,4.4c3.3,0.2,6.7,0,10-0.1c1.5-0.1,3.8,0.1,4.8-1.2c1.3-1.6-0.1-3.7-1-5
		c-0.1-0.2-0.3-0.5-0.5-0.7c0.1,0.2,0.2,0.5,0.1,0.1s-0.2-0.5-0.3-0.8c0,0,0.1,0.4,0-0.1c0-0.2-0.1-0.3-0.1-0.5
		c-0.1-0.4-0.2-0.8-0.3-1.2c-1.9-9.2-1.6-18.9-5.8-27.5c-1.6-3.4-4-6.2-7.5-7.7c-3.4-1.4-8.7-2.9-11.4,0.5c-0.7,1-1.2,2.2-1.3,3.4
		c-0.4,2.4,4.1,4.2,4.5,1.3c0.1-0.7,0.4-1.4,1-1.9c-0.3,0.2,0.8-0.4,0.5-0.2c0.3-0.1,0.7-0.2,1-0.2c1.6,0,3.1,0.3,4.5,0.9l0.4,0.2
		c0.4,0.1-0.5-0.2,0,0c0.2,0.1,0.5,0.2,0.7,0.3c0.1,0.1,0.3,0.2,0.5,0.2c0.3,0.1-0.5-0.5,0.1,0.1c0.3,0.2,0.6,0.5,0.8,0.8
		c-0.4-0.4,0.1,0.1,0.1,0.2s0.3,0.4,0.4,0.6c0.6,0.7,1.1,1.5,1.4,2.4c3.7,7.6,3.8,16.8,5.2,25.1c0.2,1.5,0.6,3.1,1.1,4.5
		c0.3,0.7,0.7,1.3,1.1,1.9c0,0.1,0.4,0.7,0.1,0.2c0.1,0.1,0.1,0.2,0.2,0.3c0.1,0.1,0.1,0.3,0.2,0.4c0.3,0.5,0-0.2,0,0s0-0.5,0-0.2
		c0.1-0.5-0.1-0.1,0.2-0.6c0-0.1,0.2-0.1,0.2-0.1c-0.3,0.1-0.6,0.1-0.9,0.2c-0.1,0-0.4,0,0,0h-0.9c-2.9,0.1-5.8,0.2-8.6,0.2
		c-3.2,0-6.5-0.4-9.6-1.3c-1.3-0.4-2.6-0.8-3.9-1.2c-0.5-0.2-1.1-0.4-1.6-0.6l-0.7-0.3c-0.1,0-0.3-0.1-0.4-0.2l-1.8-0.8
		c-1.2-0.5-0.3-0.3-0.3-0.1l1.3,1.7c0.1,0.3,0.1,0.5,0,0.8c0-0.1,0.1-0.2,0.1-0.3c0.1-0.2,0.1-0.1-0.1,0.1c0-0.1,0.1-0.2,0.2-0.2
		c1.2-1.4,2.4-2.8,3.6-4.2c4.2-4.9,7.7-10.6,7.4-17.3c-0.1-4.7-1.6-9.2-4.2-13.1c-0.7-1.1-2-1.5-3.2-1
		C330.3,176.7,330.6,178.1,331.2,179z" fill="#000005"></path><path class="st1" d="M362,215.4c0.2,0,0.4,0,0.6,0l0.7,0.1c0.1,0,0.7,0.1,0,0l0.4,0.1c0.8,0.1,1.6,0.3,2.4,0.5l0.8,0.2
		c-0.5-0.1,0.3,0.1,0.4,0.1c0.5,0.2,1.1,0.4,1.6,0.6c2.3,0.9,4.5,2.1,6.4,3.6c2.7,2.1,5,4.6,6.9,7.4c0.8,0.9,1.9,1.5,3.2,1.6
		c1,0,1.3-0.6,0.7-1.4c-5.6-8.2-14.3-13.8-24.1-15.4c-0.8-0.1-1.6-0.2-2.4-0.3c-1,0-1.3,0.6-0.7,1.4
		C359.6,214.7,360.8,215.3,362,215.4L362,215.4z" fill="#000005"></path><path class="st1" d="M328.7,210.8c-5.4-0.9-11.3,0.1-16.3,2.1c-10.6,4.1-17.9,13.1-22.5,23.2c-4.5,9.7-7.5,20.1-10.2,30.4
		s-5,20.5-7,30.8c-0.7,3.6-1.4,7.2-2,10.9c-0.3,1.8-0.8,3.6-0.9,5.4c0,0.1,0,0.2,0,0.2c-0.2,1.4,4.3,3,4.4,2.3
		c0.7-4.4,1.5-8.7,2.3-13.1c1.9-9.9,4-19.7,6.4-29.4c2.5-10.6,5.7-20.9,9.7-31.1c4.2-10.2,10.1-20,20.1-25.3c3.7-2,7.8-3.3,12-3.8
		c1.4-0.2,2.9-0.2,4.3-0.2c0.5,0,1,0,1.5,0.1c0.2,0,0.7,0.1,0.2,0l0.4,0.1h0.3c0.9,0.2,1.1-0.3,0.5-1
		C331.1,211.5,330,210.9,328.7,210.8L328.7,210.8z" fill="#000005"></path><path class="st1" d="M329.7,226.1c-0.6,2.9-1.3,5.9-2,8.8c-1.7,7.3-3.5,14.6-5.3,21.8c-2.4,9.2-4.8,18.5-7.5,27.6
		c-2.6,8.9-5.3,17.8-8.5,26.5c-0.7,1.9-1.4,3.8-2.2,5.7c-0.4,0.9-0.7,1.7-1.1,2.5l-0.5,1.2l-0.2,0.5c0,0.1-0.1,0.2-0.1,0.3
		c-0.2,0.4,0.1-0.2,0,0.1c-1.2,2.6-2.5,5.2-4.1,7.6c-0.3,0.5-0.6,0.9-1,1.3c-0.8,1,0,2.5,0.9,3.1c1.1,0.7,2.6,0.4,3.4-0.6
		c1.6-2.1,3-4.4,4.1-6.8c1.6-3.3,3.1-6.8,4.4-10.2c3.3-8.5,6-17.1,8.6-25.9c2.8-9.3,5.3-18.6,7.7-28c2-7.7,3.9-15.4,5.7-23.1
		c0.9-3.6,1.8-7.2,2.5-10.9c0,0,0-0.1,0-0.1C335.1,224.7,330.3,223.3,329.7,226.1L329.7,226.1z" fill="#000005"></path><path class="st1" d="M353.1,219.6c0.2,0.1,0.4,0.2,0.6,0.3l0.3,0.1c0.3,0.1-0.5-0.3-0.3-0.1l0.2,0.1c0.3,0.2,0.7,0.4,1,0.5
		c0.9,0.5,1.7,1.1,2.5,1.7c0.5,0.4-0.3-0.2,0.3,0.2c0.2,0.2,0.5,0.4,0.7,0.6c0.5,0.4,1,0.9,1.4,1.4c0.2,0.2,0.5,0.5,0.7,0.8
		s0.2,0.3,0.3,0.4s-0.1-0.2-0.1-0.2s0.1,0.2,0.2,0.3c0.5,0.6,1,1.2,1.4,1.9c0.2,0.3,0.4,0.7,0.6,1l0.3,0.5c0.3,0.5-0.1-0.1,0.1,0.2
		c0.4,0.8,0.8,1.6,1.2,2.5c1.6,4,2.4,8.3,2.3,12.6c-0.2,6.2-1.2,12.3-3,18.3c-1.9,6.5-4.1,12.8-6.5,19.1c-4.4,11.4-9.5,22.5-15,33.4
		c-2.9,5.6-5.9,11.1-8.9,16.6c0,0.1-0.1,0.2-0.1,0.2c-0.5,1.1-0.2,2.4,0.7,3.2c0.7,0.6,2.2,1.3,2.8,0.2c2.7-4.7,5.3-9.5,7.8-14.4
		c5.6-11,10.9-22.2,15.5-33.7c2.6-6.4,4.9-13,7-19.6c1.9-6.4,3.6-12.9,3.9-19.6c0.4-8.8-1.6-18-7.3-24.9c-2.7-3.3-6.3-6.6-10.4-8.1
		l-0.2-0.1c-0.8-0.3-1.7,0-2,0.8c-0.1,0.2-0.1,0.4-0.1,0.6c0,1.3,0.8,2.4,2,2.9L353.1,219.6z" fill="#000005"></path><path class="st1" d="M328.3,209.5c-1.3-4-3.5-7.7-6.5-10.7c-0.9-0.7-2-0.9-3.1-0.6c-0.5,0.1-1,0.3-1.5,0.6
		c-0.2,0.2-0.5,0.6-0.2,0.9c2.8,2.8,5,6.3,6.2,10.1c0.3,0.9,1.7,1,2.6,1c0.6,0,1.2-0.2,1.7-0.4C327.9,210.2,328.4,209.9,328.3,209.5
		L328.3,209.5z" fill="#000005"></path><path class="st2" d="M221.3,341.3l-0.7-1.8c-3-7.6-14.5-37.6-15.6-61.3c-1.2-27.3,20.9-14.5,20.9-14.5s-0.3-14.4,13.8-15.2
		s18.5,14.1,18.5,14.1s7.9-23.4,20.7-9.5c12.8,13.9,0,68.5,0,68.5L221.3,341.3z" fill="#59BE4C"></path><path class="st2" d="M223.4,342.5c-2.5-5.9-4.6-11.9-6.6-18c-3.2-9.4-5.7-19.1-7.7-28.8c-1-5-1.7-10.1-2-15.2
		c-0.2-4-0.2-8.3,1.2-12.1c1.5-4.2,5.8-6.8,10.2-6.2c2,0.2,3.9,0.7,5.7,1.5l0.2,0.1l0.4,0.2c0.3,0.1,0.6,0.3,0.8,0.4s-0.6-0.3,0.1,0
		l0.2,0.1c0.2,0.1,1.9,1.1,1.9,0.3c-0.1-4.6,2.1-9.7,5.9-12.5c3.8-2.5,8.5-3.2,12.9-2c0.8,0.2,1.5,0.5,2.2,0.9
		c0.2,0.1,0.3,0.2,0.8,0.5c-0.4-0.3,0.2,0.2,0.3,0.2c0.2,0.1,0.3,0.3,0.5,0.4c1.1,1.1,2.2,2.2,3,3.6c1.1,1.7,2,3.5,2.6,5.4
		c0.2,0.7,3.9,3.4,4.2,2.5c1.2-3.8,3.2-7.3,5.9-10.4c1.8-1.9,4.2-3.6,6.9-3.5c0.5,0,1.1,0.2,1.6,0.3c0.3,0.1,0.6,0.3,0.4,0.2
		c0.3,0.2,0.5,0.4,0.8,0.6c1,0.8,1.9,1.9,2.6,3c3.2,5.2,3.7,12,3.9,18c0.2,7.7-0.2,15.4-1.2,23c-0.8,6.3-1.8,12.5-3,18.7
		c-0.3,1.7-0.7,3.4-1.1,5.1c-0.1,0.4-0.1,0.7-0.2,1.1c0,0.2,0.3-0.1-0.1,0.1c-3.1,1.3-6.5,2.2-9.7,3.3l-18.1,6.2l-29.1,10l-0.5,0.2
		c-0.7,0.2,0.8,1.5,1,1.6c0.5,0.4,2,1.6,2.8,1.3l26.1-9l30.9-10.6c0.6-0.2,0.8-0.2,0.9-0.8c0.4-1.4,0.6-2.9,0.9-4.4
		c1.2-6.1,2.2-12.3,3.1-18.4c1.1-7.7,1.6-15.4,1.5-23.2c-0.1-6.5-0.6-13.6-3.7-19.4c-1.9-3.4-4.7-6.2-8.2-8.1c-2.8-1.6-6-2.5-9.1-1
		c-4.6,2.3-7.4,7.6-9.2,12.2c-0.1,0.4-0.3,0.7-0.4,1.1l4.2,2.5c-2.1-6.3-6.6-11.6-12.5-14.6c-4.7-2.5-10.2-2.9-15.1-1.2
		c-3.6,1.4-6.3,4.3-7.7,7.9c-0.8,2.1-1.3,4.3-1.2,6.6l1.9,0.3c-5.7-3.3-15.3-6.2-20,0.2c-1.9,2.7-2.5,6.2-2.8,9.4
		c-0.2,5.1,0.2,10.2,1.1,15.2c1.6,10.3,4.1,20.5,7.3,30.4c2.3,7.5,4.9,14.9,7.9,22.1c0.6,0.9,1.4,1.6,2.3,2
		C221.6,342.3,223.6,343.1,223.4,342.5z" fill="#59BE4C"></path><path class="st2" d="M150.6,291.4c13.1,0,25.9-4.2,36.5-12c0.9-0.7-0.3-1.3-0.9-1.4c-1.2-0.3-2.4-0.1-3.4,0.5
		c-9.3,7-20.6,10.8-32.2,10.8c-0.6,0-2.5,0.2-2.5,1.1S150.1,291.4,150.6,291.4L150.6,291.4z" fill="#59BE4C"></path><path class="st2" d="M180,304.6c4.2-0.7,8.1-2.3,11.5-4.8c0.4-0.2,0.6-0.6,0.6-1c-0.1-0.5-0.4-1-0.8-1.3c-0.5-0.4-1.1-0.7-1.8-0.8
		c-0.6-0.1-1.1-0.1-1.6,0.2c-1.6,1.2-3.3,2.2-5.1,3l-0.6,0.2l-0.4,0.2c-0.5,0.2-1,0.3-1.4,0.5c-1,0.3-2,0.5-2.9,0.7
		c-0.7,0.1-1.2,0.7-1.1,1.4c0,0.3,0.2,0.5,0.4,0.7C177.5,304.4,178.8,304.9,180,304.6L180,304.6z" fill="#59BE4C"></path><path class="st1" d="M243.9,236.9c-5.5,1.6-7.5,7.4-7.9,12.5c-0.5,5.5,0.1,11,2.8,15.9c0.6,1,1.2,2,2,2.9c0.5,0.6,0.8,0.6,0.3-0.2
		c-2.6-4.6-2.8-10.5-2.2-15.7c0.6-4.8,2.8-9.9,7.8-11.4c0.2-0.1-1.1-2.1-1.2-2.2S244.3,236.8,243.9,236.9L243.9,236.9z" fill="#000005"></path><path class="st1" d="M231,267.2c2.6,2.1,5.9,3,9.2,2.5c3.2-0.5,6.2-2.2,8.1-4.9c0.7-1-0.2-2.3-1.2-2.6c-1.2-0.4-2.6,0-3.3,1.1
		c-0.1,0.1-0.2,0.2,0,0c-0.1,0.1-0.2,0.2-0.3,0.3c-0.2,0.2-0.4,0.4-0.6,0.6l-0.3,0.3c-0.2,0.1-0.2,0.1,0,0c-0.2,0.1-0.4,0.3-0.7,0.5
		s-0.5,0.3-0.7,0.4c0.2-0.1,0.2-0.1,0,0s-0.2,0.1-0.4,0.1l-0.8,0.2c-0.3,0.1-0.2,0,0.1,0l-0.5,0.1c-0.3,0-0.6,0-0.9,0.1s0.4,0,0,0
		h-0.4c-0.3,0-0.6-0.1-0.9-0.1s0.3,0.1,0,0l-0.4-0.1c-0.3-0.1-0.5-0.2-0.8-0.3l-0.2-0.1l-0.2-0.1c-0.5-0.3-1-0.7-1.5-1
		c-1.1-0.7-2.6-0.6-3.5,0.4c-0.7,0.7-0.7,1.8-0.1,2.6C230.8,267,230.9,267.1,231,267.2L231,267.2z" fill="#000005"></path><path class="st0" d="M328,280.4c0,0-34.9-10.9-44.7,12.5s32.2,49.4,54.7,38.3S349.1,292,328,280.4z" fill="#FFFFFF"></path><path class="st2" d="M327.5,278.4c-8.3-2.6-17.1-3.3-25.8-2c-6.3,1-12.5,3.8-16.6,8.8c-4.4,5.2-6.1,12.1-4.6,18.8
		c1.7,7.1,6.4,13.1,11.8,17.9c5.8,5.1,12.6,9.1,19.9,11.5c6.8,2.3,14.3,3.4,21.4,1.9s13.8-6,16.9-12.6s1.8-14.4-1-20.9
		c-3.5-7.8-9-14.4-15.9-19.4c-1.8-1.3-3.6-2.5-5.5-3.6c-0.8-0.4-1.9-0.5-1.9,0.6s1.1,2.3,2,2.8c6.6,3.6,12.1,8.9,16,15.3
		c3.3,5.5,5.4,12.4,3.8,18.9c-1.6,6.7-7.1,11.7-13.5,14c-6.1,2.2-12.9,2-19.1,0.4c-6.7-1.7-13.1-4.6-18.7-8.8
		c-5-3.7-9.3-8.3-11.4-13.9c-2.1-5.6-1.5-11.9,1.8-16.9c3.3-5.3,8.7-8.6,14.6-10.1c5.5-1.2,11.1-1.5,16.6-0.8
		c2.2,0.2,4.4,0.6,6.5,1.1l0.6,0.1l0.3,0.1l1.1,0.3l1.4,0.4l0.5,0.1c1,0.3,1.6-0.3,1.3-1.3C329.6,279.8,328.7,278.9,327.5,278.4z" fill="#59BE4C"></path><path class="st2" d="M323.7,286.6c0,0,4.5,13.8,7.4,11.5s3.1-8,5-7s14.1,9.5,9,0.6s-14.9-10.4-15.1-11.6s4.9-16.3,4.9-16.3
		c-2.6-0.2-4.9,16.3-4.9,16.3s-26-5.4-25.9-3.1s11.5,3.9,9.3,6.1s-5.1,4.5-2.8,5.6S323.7,286.6,323.7,286.6z" fill="#59BE4C"></path><path class="st2" d="M321.9,286.3c0.7,2.1,1.4,4.1,2.3,6.1c1.2,2.6,2.6,5.9,5.1,7.6c3.7,2.4,5.5-2.9,6.7-5.5
		c0.1-0.2,0.2-0.5,0.4-0.8c0.1-0.1,0.2-0.3,0.2-0.4c0.2-0.2,0-0.1,0.1-0.1s0.3,0,0,0c0,0-0.5,0-0.4,0s0.8,0.5,0.1,0
		c1.1,0.7,2.2,1.4,3.4,2c1.2,0.7,2.4,1.3,3.6,1.9c1,0.6,2.2,0.8,3.4,0.8c3.8-0.8-0.1-7.1-1.1-8.6c-2.6-3.7-6-6.6-10-8.6
		c-1.3-0.6-2.6-1.2-3.9-1.8c-0.4-0.2-0.7-0.3-1.1-0.5c0.6,0.3,0.3,0.2,0.2,0.1c0.6,0.5,1,1.1,1.1,1.8c0-0.1,0.1,0.7,0.1,0.4
		s-0.1,0.5,0,0.2c1.4-5.4,3.1-10.6,4.9-15.9c0.5-1.6-1.3-3.6-2.8-3.6s-2.2,1.9-2.6,3c-0.7,1.8-1.3,3.7-1.6,5.6
		c-0.6,2.8-1.1,5.7-1.5,8.6l1.3-0.9c-3.1-0.7-6.2-1.3-9.4-1.8c-4.7-1-9.4-1.7-14.2-2c-1.2,0-3.3-0.2-3.7,1.4
		c-0.8,2.9,2.9,4.8,5.1,5.7c1.2,0.5,2.4,0.9,3.5,1.4c0.5,0.2,1,0.4,1.5,0.7c0.3,0.2-0.2-0.2,0.2,0.1c0.2,0.2-0.1,0-0.1-0.1
		c0.2,0.6-0.5-1-0.6-1.2c0-0.3,0-0.5-0.1-0.8c-0.2-0.5,0.3-0.2,0-0.1s-0.7,0.7-1,0.9c-0.8,0.7-1.5,1.5-2.2,2.4
		c-1.3,1.8-0.8,4.4,1,5.6c2.3,1.8,5.9,0.8,8.5,0.3c2.2-0.5,4.3-1,6.4-1.7c2.3-0.7,0-5.1-1.9-4.5c-1.5,0.5-3.1,0.9-4.6,1.2
		c-2.1,0.5-5,1.3-7,1.1c-0.2,0-0.4-0.1-0.6-0.1c0.1,0,0.2,0.1,0.2,0.1c0-0.2,0.5,2.6,1.1,2s0.9-1.2,1.4-1.7c1-1,2.5-1.9,2.5-3.5
		c0-2.7-2.8-4.2-5-5.1c-1.1-0.4-2.2-0.8-3.3-1.3c-0.5-0.2-1-0.4-1.5-0.7c-0.1-0.1-0.6-0.3-0.2-0.1c-0.3-0.2-0.4-0.4-0.1,0
		c-0.2-0.3,0.2,0.2,0.2,0.2c0.4,0.5,0.5,1.2,0.4,1.8c-0.1,0.2-0.2,0.4-0.4,0.5c0.2-0.2,0,0-0.2,0c0.1,0,0.2-0.1,0.3-0.1l0.8-0.1h0.4
		c-0.4,0,0.1,0,0.3,0c4.4,0.3,8.8,0.9,13.1,1.7c3.4,0.6,6.7,1.2,10.1,1.9c0.6,0.1,1.2-0.2,1.3-0.9c0,0,0,0,0,0
		c0.4-2.6,0.8-5.3,1.4-7.9c0.4-1.9,0.9-3.7,1.5-5.5c0.2-0.6,0.4-1.1,0.8-1.7c0.1-0.2,0.5-0.7,0.3-0.4c0.1-0.1,0.3-0.1,0.1-0.1
		s0,0,0.1,0l-2.8-3.6c-1.6,4.6-3.1,9.2-4.4,13.9c-0.3,0.9-0.5,1.9-0.6,2.8c0.1,1.5,1,2.9,2.4,3.6c2.2,1.2,4.6,1.9,6.7,3.2
		c1.6,1,3.1,2.2,4.4,3.6c0.7,0.7,1.2,1.5,1.8,2.4c0.2,0.3,0.4,0.6,0.5,0.9s0.2,0.4,0.3,0.6s0.3,0.7,0.2,0.4c0-0.1,0,0.7,0,0.1
		c0,0.2,0-0.2,0.1-0.3c-0.1,0.2,0.3-0.4,0.2-0.1c0,0-0.2,0-0.2,0s0.3,0,0,0c-0.2,0-0.3-0.1-0.5-0.1c0.2,0-0.4-0.2-0.6-0.2
		c-0.6-0.3-1.2-0.5-1.8-0.9c-1.3-0.7-1.9-1-3-1.8c-0.8-0.6-1.7-1.1-2.5-1.5c-1.6-0.7-2.7,0.2-3.4,1.6c-0.8,1.6-1.2,3.3-2.3,4.7
		c-0.2,0.3-0.5,0.6-0.8,0.8c-0.3,0.2,0.1,0,0.1,0c-0.1,0.1-0.3,0,0,0c-0.2,0,0.5,0.3,0.1,0.1c-0.2-0.1-0.3-0.4,0.1,0.1
		c-0.1-0.1-0.2-0.2-0.3-0.3s-0.4-0.5,0,0c-0.1-0.2-0.2-0.3-0.3-0.5s-0.4-0.6-0.6-0.9c-0.1-0.1-0.1-0.3-0.2-0.4
		c0.3,0.5-0.1-0.1-0.1-0.2c-0.2-0.4-0.4-0.8-0.6-1.2c-0.7-1.4-1.2-2.9-1.8-4.3c-0.2-0.5-0.4-1-0.5-1.5c-0.1-0.3-0.4-1.3,0-0.1
		c-0.4-1.1-1.1-2.4-2.4-2.5c-0.7-0.1-1.4,0.5-1.5,1.2C321.7,285.8,321.7,286.1,321.9,286.3z" fill="#59BE4C"></path></g><g id="basket"><g id="basket-2"><path class="st1" d="M125.7,286.6c0,0-32.5,1.3-56.4,23.7s-54.8,59.2-28.4,65.5s90.6-81.8,90.6-85.3s-3.4-3.5-6.8,0
			s-53.8,59.7-69,65.2s-15.7-3.8,1.2-24.3S121.2,285.2,125.7,286.6z"></path><path class="st1" d="M125,284.4c-5.4,0.3-10.7,1.2-15.9,2.6c-11.6,2.7-22.7,7.5-32.5,14.2c-5.4,3.9-10.4,8.2-15,13
			c-4.7,4.6-9.2,9.4-13.4,14.4c-4.1,4.6-7.8,9.5-11.3,14.6c-3,4.3-5.4,9-7.2,13.9c-1.2,3.7-1.9,7.9-0.6,11.6c1.4,4,4.8,6.8,8.7,8.2
			c6,2.2,11.8,1,17.4-1.6c6.8-3.3,12.9-7.9,18.6-12.8c6.9-6,13.4-12.4,19.6-19.2c6.2-6.7,12.2-13.7,18-20.8c4.8-6,9.5-12,14-18.2
			c2.7-3.5,5.2-7.3,7.5-11.1c0.3-0.5,0.6-1,0.8-1.6c0.4-1.9-0.4-4-2-5.1c-3.8-2.5-7.6,1-10.1,3.7c-3.9,4.2-7.8,8.5-11.8,12.7
			c-6.2,6.6-12.6,13.3-19,19.8c-6.7,6.7-13.5,13.4-20.6,19.6c-2.9,2.5-5.8,5-8.9,7.2c-1.2,0.9-2.5,1.8-3.7,2.5l-0.8,0.5l-0.4,0.2
			c-0.2,0.1,0.3-0.2-0.1,0.1s-1,0.5-1.4,0.7c-1.8,0.7-3.7,1.3-5.6,1.5c-0.4,0-0.8,0.1-1.2,0.1c-0.2,0-0.5,0-0.1,0l-0.6-0.1
			c-0.2,0-0.3-0.1-0.5-0.1c0.3,0.1,0.4,0.2,0.1,0c-0.7-0.4,0.3,0.3-0.3-0.2c0.8,0.6-0.3-0.5,0.2,0.2c-0.1-0.1-0.3-0.5-0.1-0.1
			s0-0.1-0.1-0.2c0-0.1-0.1-0.3-0.1-0.4c0.1,0.4,0,0.2,0-0.1s0-0.7,0-1c0,0.4,0-0.1,0-0.2s0.1-0.4,0.1-0.5c0.1-0.5,0.2-0.9,0.4-1.4
			c0.3-0.9,0.7-1.9,1.1-2.8c3.1-5.9,6.9-11.4,11.4-16.4c3.2-3.6,6.8-7,10.6-10.1c8.8-7.2,18.1-13.7,27.9-19.5
			c7.5-4.5,15.2-9,23.4-12.2c1.1-0.4,2.2-0.8,3.3-1.1c0.1,0,0.8-0.2,0.4-0.1s0.2,0,0.3,0c0.1,0,0.3,0,0.4,0c0.2-0.1-0.7-0.1-0.3,0
			s0.5,0.1-0.4-0.1c1.1,0.3,2.5,0.2,2.8-1.1c0.2-1.3-0.6-2.5-1.8-2.9c-2.2-0.6-4.4,0.3-6.5,1c-3.4,1.3-6.7,2.9-9.9,4.5
			c-9.4,4.9-18.6,10.3-27.4,16.2c-8.9,6-17.7,12.6-25.1,20.5c-4.4,4.7-8.2,9.8-11.5,15.3c-2,3.3-4.5,7.7-4,11.7
			c1.2,8.6,13,5,17.9,2.3c6.1-3.4,11.5-8.4,16.7-13.1c7.1-6.4,13.9-13.2,20.6-20c6.3-6.5,12.5-13,18.7-19.6
			c3.5-3.7,6.9-7.5,10.4-11.2c0.4-0.5-0.4,0.4,0.1-0.1c0.6-0.6,1.2-1.1,1.9-1.6c0.2-0.2,0.5-0.3,0.8-0.5c0.3-0.1,0.6-0.1,0.9-0.2
			c0.2-0.2,0.1,0.1,0,0c-0.2-0.1-0.4-0.2-0.6-0.3c-0.3-0.1-0.1-0.3-0.2-0.1s0.1,0.5,0,0.5s0-0.7,0-0.4c0,0.1-0.1,0.3-0.1,0.4
			c0.3-0.7,0.1-0.2-0.1,0.1s-0.3,0.5-0.4,0.8c-0.4,0.7-0.8,1.4-1.3,2c-3,4.7-6.4,9.3-9.8,13.8c-4.8,6.5-9.9,13-15.2,19.3
			c-5.9,7-11.9,13.8-18.3,20.3c-6,6.2-12.4,12-19.2,17.3c-5.4,4.1-10.6,7.7-17,9.6l-1,0.2c-0.1,0-0.5,0.1-0.2,0.1l-0.3,0.1
			c-0.6,0.1-1.2,0.2-1.8,0.2c-0.3,0-0.6,0-0.9,0s-1.1,0-0.4,0c-0.6,0-1.1-0.1-1.7-0.2c-0.8-0.1-1.6-0.4-2.4-0.7
			c-0.5-0.2-0.9-0.4-1.3-0.5c-0.1-0.1-0.3-0.1-0.4-0.2c0.2,0.1-0.4-0.3-0.6-0.3c-0.3-0.2-0.7-0.5-1-0.7c-0.2-0.2,0.1,0.1,0.1,0.1
			l-0.3-0.3c-0.2-0.2-0.3-0.3-0.5-0.5l-0.4-0.4c-0.1-0.1,0.2,0.3-0.1-0.1s-0.5-0.7-0.7-1.1s0,0-0.1-0.1l-0.2-0.6
			c-0.1-0.4-0.2-0.8-0.3-1.2c0-0.1,0,0.2,0-0.2c0-0.2,0-0.5-0.1-0.7c0-0.4,0-0.9,0-1.3c0-0.8,0.1-1.6,0.2-2.5c0.2-1,0.4-2,0.8-3
			c1.6-4.7,3.9-9.2,6.8-13.3c6.8-10.4,15.3-19.7,24.1-28.5c4.5-4.7,9.5-9,14.8-12.9c5.2-3.6,10.8-6.6,16.7-9
			c8.3-3.4,16.9-5.7,25.8-6.8c1.3-0.2,2.7-0.3,4-0.4c1-0.1,1.7-0.9,1.7-1.9c0-0.2,0-0.3-0.1-0.5C127.5,285.1,126.3,284.4,125,284.4z
			"></path><path class="st1" d="M125.7,286.6c0,0-4.7,31.1,6.1,75.8s20.3,61.6,25,65s42,23.7,108.3,18.3s83.3-16.9,88.7-21
			s31.8-56.2,31.8-96.8s-2.8-41.2-3.2-40.5c-8.5,14.5-32.4,20.1-84.7,21.8C241.6,311.1,133.5,294.2,125.7,286.6z"></path><path class="st1" d="M123.4,285.7c-1,7.7-1.3,15.4-1,23.2c0.4,20,3.7,39.6,8.6,59c3.9,15.6,8.3,31.4,15,46
			c2.6,5.7,5.6,12,11.1,15.4c6.3,3.9,13.4,6.6,20.4,9c13.9,4.6,28.3,7.6,42.8,8.9c20.9,2.1,41.8,1,62.6-1.3
			c15.5-1.7,31.1-4,46.2-8.1c7.4-2,14.9-4.5,21.6-8.3c1.6-0.9,3.1-1.9,4.6-2.9c2.3-1.7,3.9-4.6,5.3-7.1
			c7.1-12.2,12.6-25.5,17.1-38.8c5.7-16.7,10.1-34.3,10.1-52.1c0-8.8-0.1-17.6-0.6-26.4c-0.1-4-0.6-7.9-1.3-11.8
			c-0.4-2-1.2-3.7-3.2-4.5c-0.8-0.5-1.8-0.3-2.5,0.3c-1.1,1.4-2,3-3.2,4.3c-6.9,7.2-17.5,10.2-27,12.1c-17.6,3.6-35.8,4.4-53.7,5
			c-14.4,0.3-28.9-0.1-43.3-1.3c-16.2-1.2-32.3-2.8-48.4-4.9c-14.6-1.9-29.3-4.1-43.8-6.7c-5.8-1.1-11.5-2.2-17.2-3.5
			c-2.3-0.5-4.6-1.1-6.9-1.7c-1-0.3-1.9-0.5-2.8-0.8l-0.5-0.1l-0.4-0.1l-1.3-0.4c-1.3-0.4-2.6-0.9-3.8-1.4c-0.6-0.3,0.5,0.3-0.2-0.1
			l-0.6-0.3c-0.6-0.3,0.5,0.4,0,0s-0.4-0.4,0,0c-0.8-0.7-2.1-1.6-3.2-1.3s-0.7,1.4-0.1,2c2,1.9,4.7,2.9,7.2,3.7
			c4,1.4,8,2.4,12.1,3.4c12.1,2.9,24.4,5,36.7,6.9c15.6,2.4,31.2,4.5,46.8,6.1c15.6,1.7,31.4,3,47.1,3.6c16.5,0.6,32.9,0.3,49.4-1
			c8.3-0.6,16.6-1.4,24.8-2.8c6.1-1,12.1-2.5,18-4.6c4.4-1.5,8.6-3.7,12.3-6.6c1.6-1.3,3-2.7,4.2-4.2c0.6-0.7,1.1-1.5,1.6-2.2
			c0.1-0.1,0.4-0.5,0.4-0.7s-0.4,0.3-0.2,0.2c-0.8,0.2-1.6,0.1-2.3-0.3c-0.3-0.2-0.6-0.4-0.9-0.7c0.1,0.1-0.4-0.6-0.2-0.2
			s-0.1-0.3,0-0.1s0.1,0.3,0.1,0.4c0.1,0.4,0.2,0.7,0.3,1.1c0.3,1.2,0.5,2.4,0.6,3.6c0.3,2.3,0.5,4.6,0.6,6.9
			c0.5,8.4,0.6,16.8,0.7,25.2c0,8.8-0.8,17.6-2.5,26.2c-3.4,16.7-8.7,33-15.7,48.5c-2.5,5.7-5.2,11.2-8.3,16.6
			c-1,1.8-2.1,3.5-3.2,5.1c-0.4,0.5-0.8,1-1.2,1.5c-0.2,0.3,0.1-0.1-0.1,0.1l-0.2,0.2l-0.4,0.3c-3.8,2.8-7.9,5-12.3,6.7
			c-4.1,1.6-8.3,3-12.5,4.2c-6.2,1.7-12.5,3.1-18.8,4.3c-8.7,1.6-17.4,2.8-26.1,3.8c-10.9,1.2-21.9,2.3-32.9,2.6
			c-17.8,0.6-35.6-0.9-53-4.5c-10.7-2.1-21.1-5.4-31-9.9l-0.7-0.3l-1.2-0.6c-0.6-0.3-1.3-0.6-1.9-1c-1-0.5-1.9-1-2.9-1.6l-0.5-0.3
			c-0.4-0.3,0.6,0.5,0.1,0.1l-0.4-0.3l-0.2-0.2c-0.5-0.3,0.3,0.3,0.1,0.1c-0.3-0.4-0.8-0.8-1.1-1.1c-0.2-0.2-0.6-0.8-0.3-0.3
			c-0.2-0.3-0.4-0.6-0.6-0.9c-2.2-3.2-4.1-6.6-5.6-10.2c-2.7-6.1-5-12.3-7-18.6c-3-9.3-5.6-18.7-8-28.1c-2.7-10.7-4.8-21.5-6.2-32.4
			c-1.9-13.8-2.3-27.7-1.4-41.6c0.1-1.9,0.3-3.8,0.6-5.6C128.2,285.8,123.7,283.7,123.4,285.7z"></path><path class="st1" d="M387.3,292.2c0,0,28.1,1.3,48.7,23.7s47.3,59.2,24.5,65.5s-78.2-81.8-78.2-85.3s2.9-3.5,5.8,0
			s46.4,59.7,59.6,65.2s13.5-3.8-1-24.3S391.2,290.8,387.3,292.2z"></path><path class="st1" d="M387.9,294.5h0.2h0.3h0.2c0.5,0-0.5-0.1-0.2,0c1,0.1,1.9,0.2,2.9,0.4c3.5,0.5,6.9,1.3,10.2,2.3
			c10.5,3,20.2,8.3,28.4,15.6c4.3,4,8.3,8.4,12,13c3.8,4.5,7.5,9.2,11,14c3.3,4.5,6.2,9.2,8.9,14.1c2.2,3.9,3.9,8.2,4.9,12.6
			c0.3,1.6,0.4,3.3,0.3,5c-0.1,0.7,0.1-0.4,0,0.2c0,0.2-0.1,0.4-0.1,0.6c-0.1,0.4-0.2,0.8-0.3,1.1c-0.2,0.7-0.5,1.3-0.9,1.9
			c-0.8,1.1-1.8,2.1-3,2.7c-0.8,0.4-1.7,0.8-2.6,1.1l-0.9,0.2c-0.4,0.1,0.5-0.1,0.1,0l-0.5,0.1c-0.4,0-0.9,0.1-1.3,0.1
			c-0.2,0-0.5,0-0.7,0c0.7,0-0.2,0-0.4-0.1c-0.5-0.1-1-0.2-1.5-0.3l-0.7-0.2l-0.3-0.1c-0.4-0.1,0.5,0.2-0.1,0
			c-1.2-0.5-2.4-1.1-3.6-1.7c-0.5-0.3-1.1-0.6-1.6-0.9c-0.1-0.1-0.3-0.2-0.4-0.3c-0.5-0.3,0.4,0.3-0.1,0l-1.1-0.7
			c-2.7-1.9-5.3-4-7.7-6.2c-3-2.7-5.1-4.8-7.8-7.7c-5.7-6-11-12.5-16.1-19s-10-13.3-14.6-20.1c-2.1-3-4.1-6-6.1-9.1
			c-0.4-0.6-0.8-1.2-1.2-1.9l-0.6-1c-0.4-0.6,0.3,0.5,0-0.1l-0.4-0.6c-0.8-1.2-1.6-2.5-2.3-3.8c-1.9-3-3.7-6.2-5.3-9.4
			c-0.3-0.6,0.2,0.7,0,0.1c0-0.1,0-0.1,0-0.2c0.2,1.4,0.2-0.1,0.1-0.2s0-0.4,0-0.1s-0.4-0.6,0.1,0c0,0.1-0.8-0.3,0.2,0.1
			c0.2,0.1,0.4,0.2,0.6,0.4c0.5,0.4,0.9,0.8,1.3,1.3c1,1.2,2,2.5,3,3.8c9.7,12.2,19.6,24.4,29.9,36.1c5.5,6.3,11.1,12.5,17.2,18.2
			c4.3,4,8.9,8,14.9,9.2c3,0.6,6.4,0.3,7.6-3c1.3-3.4-0.5-7.6-1.9-10.7c-2.7-5.8-6-11.3-9.9-16.4c-2.9-3.8-6.1-7.4-9.6-10.8
			c-7.8-7.4-16.1-14.2-25-20.2c-6.7-4.6-13.6-9.3-21.1-12.6c-1.6-0.7-3.9-1.9-5.8-1.3c-2.6,0.9-0.2,5.2,2.2,4.4
			c0.3-0.1-0.7,0.1-0.2,0s-0.5-0.1-0.1,0s0.8,0.2,1.2,0.3s-0.5-0.2,0.2,0.1l0.8,0.3c0.6,0.3,1.3,0.6,1.9,0.9
			c3.3,1.6,6.5,3.4,9.6,5.4c8.7,5.4,17.1,11.5,25,18.1c4,3.3,7.8,6.8,11.4,10.4c3.8,4,7.2,8.3,10.1,12.9c2.8,4.2,5.7,9,6.8,13.7
			c0.1,0.4,0.2,0.8,0.2,1.2c0.1,0.6,0-0.5,0,0.1c0,0.2,0,0.3,0,0.5s-0.1,1.1,0,0.5c-0.1,0.3-0.1,0.6-0.2,0.9c0.2-0.6-0.1,0-0.1,0.1
			s-0.4,0.3,0.1,0c-0.1,0.1-0.2,0.2-0.3,0.2c-0.6,0.3,0.2,0-0.3,0.2l-0.4,0.1c-0.5,0.2,0.2,0-0.1,0s-0.6,0-0.9,0c-0.1,0-0.6,0-0.1,0
			c-0.2,0-0.4,0-0.5-0.1c-0.9-0.2-1.8-0.4-2.7-0.7l-1.1-0.5l-0.7-0.3c-0.5-0.2-0.9-0.5-1.4-0.8s0.5,0.3,0.1,0l-0.2-0.1l-0.7-0.5
			c-0.5-0.4-1.1-0.8-1.6-1.2c-1.2-1-2.3-2-3.5-3c-1.3-1.2-2.6-2.4-3.9-3.7l-0.8-0.8l-0.2-0.2l-0.5-0.5L433,346c-3-3.2-6-6.5-8.9-9.8
			c-10.6-12-20.7-24.4-30.7-36.9c-1.1-1.3-2.2-2.7-3.2-4.1c-1.1-1.6-2.6-2.8-4.4-3.7c-1.3-0.7-2.8-0.6-4,0.1
			c-1.2,0.9-1.8,2.4-1.6,3.9c0.2,1.2,0.6,2.3,1.2,3.3c0.8,1.6,1.8,3.2,2.7,4.8c7.4,12.4,15.5,24.4,24.2,35.9
			c5.1,6.8,10.4,13.5,16,19.8c5.1,5.9,10.6,11.3,16.5,16.2c4.4,3.5,9.5,7.1,15.1,8.1c6.1,1.1,12.9-2.2,14.9-8.3
			c1.2-3.8,0.6-8-0.4-11.7c-1.5-4.8-3.5-9.4-6-13.7c-5.9-10.4-13.3-20-21-29c-4-4.8-8.3-9.3-13-13.4c-4.7-3.9-9.8-7.2-15.2-9.8
			c-7.6-3.8-15.7-6.3-24.1-7.6c-1.4-0.2-2.8-0.4-4.2-0.4s-1.8,1.4-1.6,2.4C385.5,293.6,386.6,294.5,387.9,294.5z"></path></g><path class="st0" d="M135.1,305.9c1.3,7.8,6,14.6,12.9,18.6c1.2,0.8,2.7,0.4,3.5-0.7c0.8-1.2,0.4-2.7-0.7-3.5
		c-0.1,0-0.2-0.1-0.2-0.1c-0.8-0.4-1.5-0.9-2.2-1.4c-0.3-0.2-0.5-0.4-0.7-0.5c-0.3-0.3-0.6-0.6-1-0.9c-0.6-0.6-1.2-1.2-1.8-1.9
		c-0.5-0.5-0.9-1.1-1.4-1.8c-1.9-2.7-3.1-5.9-3.6-9.2c-0.4-1.3-1.7-2.1-3.1-1.8C135.6,303.2,134.8,304.6,135.1,305.9L135.1,305.9z"></path><path class="st0" d="M159.8,308.2c-1.6,7.5-4.7,14.7-9.1,21c-0.7,1.2-0.3,2.7,0.9,3.4c1.2,0.7,2.7,0.3,3.4-0.9
		c4.6-6.7,7.9-14.3,9.6-22.2c0.3-1.3-0.4-2.7-1.8-3.1C161.6,306.1,160.2,306.8,159.8,308.2L159.8,308.2z"></path><path class="st0" d="M137.8,335.6c1.9,8,6.8,14.9,13.7,19.4c1.2,0.7,2.7,0.3,3.4-0.9c0.7-1.2,0.3-2.7-0.9-3.4l0,0
		c-5.8-3.8-9.9-9.6-11.4-16.4c-0.4-1.3-1.7-2.1-3.1-1.7C138.2,332.9,137.5,334.3,137.8,335.6L137.8,335.6z"></path><path class="st0" d="M163.8,336.1c-0.5,7.1,1.9,18.9-6.4,22.6c-1.2,0.7-1.6,2.2-0.9,3.4c0.7,1.2,2.2,1.6,3.4,0.9
		c4.2-1.9,6.8-6.1,7.9-10.4c1.4-5.4,0.6-11,1-16.5c0-1.4-1.1-2.5-2.5-2.5C164.9,333.6,163.8,334.7,163.8,336.1L163.8,336.1z"></path><path class="st0" d="M141.2,363.2c2.9,8.7,9.5,15.7,18,19.2c1.3,0.4,2.7-0.4,3.1-1.8c0.3-1.3-0.4-2.7-1.7-3.1
		c-0.8-0.3,0.4,0.2-0.4-0.2l-0.7-0.3c-0.4-0.2-0.9-0.4-1.3-0.7c-0.8-0.5-1.6-1-2.4-1.5c-0.7-0.5-1.4-1-2.1-1.6
		c-0.7-0.6-1.4-1.3-2.1-2c-2.5-2.7-4.4-5.9-5.6-9.4c-0.4-1.3-1.8-2.1-3.1-1.8C141.6,360.5,140.8,361.8,141.2,363.2L141.2,363.2z"></path><path class="st0" d="M167.7,368.7c0.8,6.8-1.1,13.6-5.3,19c-0.9,1-0.9,2.5,0,3.5c1,1,2.6,1,3.5,0c5.2-6.3,7.6-14.4,6.8-22.6
		c0-1.4-1.1-2.5-2.5-2.5C168.8,366.2,167.7,367.3,167.7,368.7L167.7,368.7z"></path><path class="st0" d="M148.4,397.8c4.1,6.9,11.8,11,19.8,10.5c1.4,0,2.5-1.1,2.5-2.5c0-1.4-1.1-2.5-2.5-2.5
		c-6.3,0.4-12.3-2.7-15.5-8.1c-0.6-1.2-2.1-1.7-3.4-1.1c-1.2,0.6-1.7,2.1-1.1,3.4C148.3,397.6,148.4,397.7,148.4,397.8z"></path><path class="st0" d="M175,402.2c0,6.4-3.8,12.1-8.1,16.8c-0.9,1-0.9,2.6,0,3.5c1,1,2.6,1,3.5,0c5.2-5.6,9.6-12.5,9.6-20.4
		C180,399,175,399,175,402.2L175,402.2z"></path><path class="st0" d="M196.2,315.9c-1.5,8.2,2,16.4,8.8,21.1c1.2,0.7,2.7,0.3,3.4-0.9c0.7-1.2,0.3-2.7-0.9-3.4
		c-2.4-1.7-4.3-4.1-5.5-6.8c-0.2-0.5-0.5-1.5-0.7-2.1c-0.1-0.4-0.2-0.8-0.3-1.2c0-0.2-0.1-0.4-0.1-0.5c0-0.1,0-0.2,0-0.3
		c-0.1-0.8-0.1-1.6-0.1-2.4c0-0.7,0.1-1.4,0.2-2.1c0.3-1.3-0.4-2.7-1.8-3.1C198,313.8,196.6,314.5,196.2,315.9L196.2,315.9z"></path><path class="st0" d="M221.3,325.1c0.5,6.8-2.6,13.3-8.2,17.2c-1.2,0.7-1.6,2.2-0.9,3.4c0.7,1.2,2.2,1.6,3.4,0.9
		c7.1-4.8,11.1-13,10.7-21.5c0-1.4-1.1-2.5-2.5-2.5C222.4,322.6,221.3,323.7,221.3,325.1z"></path><path class="st0" d="M198,346.8c0.2,7.9,4.8,14.9,11.9,18.3c1.2,0.7,2.7,0.3,3.4-0.9c0.7-1.2,0.3-2.7-0.9-3.4
		c-0.7-0.3-1.4-0.7-2.1-1.1c-0.4-0.2-0.7-0.5-1.1-0.7s0.4,0.4-0.1-0.1l-0.4-0.4c-0.6-0.5-1.2-1.1-1.7-1.7l-0.4-0.5
		c0,0-0.5-0.6-0.2-0.2c-0.2-0.3-0.5-0.6-0.7-1c-0.4-0.6-0.8-1.3-1.2-2c-0.1-0.2-0.2-0.4-0.2-0.5s-0.2-0.5-0.1-0.2
		c-0.1-0.4-0.3-0.7-0.4-1.1c-0.3-0.8-0.5-1.6-0.6-2.4c0-0.2-0.1-0.4-0.1-0.6c0,0.4,0,0,0-0.2c-0.1-0.4-0.1-0.9-0.1-1.3
		c0-1.4-1.1-2.5-2.5-2.5S198,345.4,198,346.8L198,346.8z"></path><path class="st0" d="M222.3,349.4c0,7.4,0.1,16.9-6.4,21.9c-1.2,0.7-1.6,2.2-0.9,3.4c0.7,1.2,2.2,1.6,3.4,0.9
		c8.2-6.2,8.9-16.7,8.9-26.2C227.3,346.2,222.3,346.2,222.3,349.4L222.3,349.4z"></path><path class="st0" d="M199.7,376.1c0.1,7.7,6.3,13.8,13.9,14c1.4,0,2.5-1.1,2.5-2.5c0-1.4-1.1-2.5-2.5-2.5h-0.6c-0.2,0-0.4,0-0.6,0
		c0.2-0.1,0.4,0.1,0,0L212,385c-0.3-0.1-0.7-0.2-1-0.3l-0.5-0.2c-0.1,0-0.6-0.2-0.2-0.1s-0.1-0.1-0.2-0.1l-0.5-0.2
		c-0.3-0.2-0.6-0.4-0.9-0.6l-0.4-0.3c-0.2-0.2,0.3,0.3,0,0s-0.6-0.5-0.8-0.8s-0.5-0.5-0.7-0.8s-0.1,0,0,0c-0.1-0.1-0.2-0.3-0.3-0.5
		c-0.4-0.5-0.8-1.1-1-1.8c0.1,0.6,0,0.1,0-0.1l-0.2-0.5c-0.1-0.3-0.2-0.6-0.2-0.9s-0.1-0.4-0.1-0.5s-0.2-0.7,0-0.1
		c-0.1-0.4-0.1-0.7-0.1-1.1c0-1.4-1.1-2.5-2.5-2.5S199.7,374.8,199.7,376.1L199.7,376.1z"></path><path class="st0" d="M224.9,379.4c-1.1,7.3-4.9,13.9-10.6,18.5c-1,1-1,2.6,0,3.5c1,0.9,2.6,0.9,3.5,0c6.7-5.5,11-13.4,12.1-22
		c0-1.4-1.1-2.5-2.5-2.5C226,376.9,224.9,378,224.9,379.4L224.9,379.4z"></path><path class="st0" d="M199.4,404.8c1.2,3,2.9,5.9,5,8.3c2,2.3,5,4.4,8.3,4.1c1.4,0,2.5-1.1,2.5-2.5c0-1.4-1.1-2.5-2.5-2.5
		c-0.3,0-0.6,0-0.9,0s0.6,0.1,0.1,0l-0.4-0.1c-0.1,0-0.3-0.1-0.4-0.1l-0.2-0.1l0.2,0.1c-0.1,0-0.6-0.3-0.8-0.4
		c-0.3-0.1-0.5-0.3-0.7-0.5l0.2,0.1l-0.2-0.2l-0.3-0.3c-0.5-0.4-0.9-0.9-1.3-1.3c-0.2-0.2-0.4-0.5-0.6-0.7c0.3,0.5,0.1,0.1,0,0
		l-0.3-0.4c-0.4-0.5-0.8-1.1-1.1-1.7s-0.7-1.1-1-1.7c-0.1-0.3-0.3-0.6-0.4-0.9c-0.1-0.2-0.2-0.3-0.2-0.5l0.1,0.2
		c0-0.1-0.1-0.2-0.1-0.4c-0.2-0.6-0.6-1.2-1.1-1.5c-0.6-0.3-1.3-0.4-1.9-0.2C199.8,402,199,403.4,199.4,404.8L199.4,404.8z"></path><path class="st0" d="M226.6,408.1c-1.8,7.9-7.7,14.2-15.4,16.6c-1.3,0.4-2.1,1.7-1.7,3.1c0.4,1.3,1.7,2.1,3.1,1.7
		c9.4-2.9,16.6-10.6,18.9-20.1c0.3-1.3-0.4-2.7-1.8-3.1C228.3,406,226.9,406.8,226.6,408.1L226.6,408.1z"></path><path class="st0" d="M262.9,323.1c1.4,6.2,3.3,12.7,9,16.5c1.2,0.7,2.7,0.3,3.4-0.9c0.7-1.2,0.3-2.7-0.9-3.4
		c-0.1,0-0.8-0.6-0.5-0.3c-0.2-0.2-0.5-0.4-0.7-0.6c-0.5-0.4-0.9-0.9-1.3-1.4c0.3,0.3-0.3-0.4-0.3-0.5c-0.2-0.3-0.4-0.5-0.5-0.8
		c-0.3-0.5-0.6-1.1-0.9-1.7c-1.1-2.6-1.9-5.4-2.4-8.1c-0.4-1.3-1.7-2.1-3.1-1.8C263.4,320.4,262.6,321.8,262.9,323.1L262.9,323.1z"></path><path class="st0" d="M285.3,325.7c0.1,4,0.2,8.4-1.5,12.1s-4.9,6.5-7.9,9.1c-2.4,2.1,1.1,5.7,3.5,3.5c3.4-3,7-6.3,8.8-10.5
		c2-4.5,2.2-9.5,2-14.3C290.1,322.5,285.1,322.5,285.3,325.7L285.3,325.7z"></path><path class="st0" d="M265.6,359c1.8,6,6.6,10.5,12.6,12c1.3,0.4,2.7-0.4,3.1-1.8s-0.4-2.7-1.8-3.1c-0.6-0.1-1.2-0.3-1.8-0.5
		l-0.4-0.2c0.7,0.2,0.2,0.1,0,0c-0.3-0.1-0.6-0.3-0.9-0.4c-0.5-0.3-1-0.6-1.5-1c-0.1,0-0.5-0.4-0.2-0.1s-0.1-0.1-0.2-0.1
		c-0.2-0.2-0.5-0.4-0.7-0.6c-0.4-0.4-0.9-0.9-1.2-1.3l-0.3-0.4c0.5,0.5,0.1,0.1,0,0s-0.4-0.5-0.5-0.8c-0.3-0.5-0.6-1.1-0.9-1.7
		l-0.1-0.1c-0.1-0.2-0.1-0.2,0.1,0.2c0-0.1-0.1-0.3-0.1-0.4c-0.1-0.3-0.2-0.6-0.3-1c-0.4-1.3-1.7-2.1-3.1-1.8
		C266,356.3,265.2,357.6,265.6,359L265.6,359z"></path><path class="st0" d="M289.4,357.1c-1.4,9.5-6.3,18-13.8,24c-1,1-1,2.6,0,3.5c1,0.9,2.5,0.9,3.5,0c8.1-6.5,13.5-15.9,15.1-26.2
		c0.3-1.3-0.4-2.7-1.8-3.1C291.2,355,289.8,355.8,289.4,357.1L289.4,357.1z"></path><path class="st0" d="M269.2,391c2.7,6.9,9.8,11,17.1,9.9c1.3-0.4,2.1-1.7,1.8-3.1c-0.4-1.3-1.8-2.1-3.1-1.8c0.6-0.1-0.3,0-0.5,0
		s-0.7,0-1,0h-0.6c-0.1,0-0.6-0.1-0.3,0s-0.2,0-0.2,0l-0.5-0.1c-0.6-0.1-1.3-0.3-1.9-0.6c-0.2-0.1-0.4-0.1,0,0l-0.5-0.2
		c-0.3-0.1-0.6-0.3-0.9-0.5s-0.6-0.3-0.8-0.5l-0.4-0.3c-0.2-0.2,0.3,0.3,0,0c-0.5-0.4-1-0.9-1.5-1.4c-0.2-0.2-0.4-0.5-0.6-0.8
		c0.4,0.5,0-0.1-0.1-0.1l-0.3-0.4c-0.2-0.3-0.3-0.6-0.5-0.9l-0.2-0.4c-0.1-0.1-0.3-0.7-0.1-0.1c-0.4-1.3-1.8-2.1-3.1-1.7
		C269.8,388.3,268.7,389.7,269.2,391L269.2,391z"></path><path class="st0" d="M295.1,392.4c-0.1,2.3-0.8,4.5-2.1,6.4c-1.1,1.9-2.3,3.7-3.6,5.4c-2.8,3.4-6,6.4-9.7,8.9
		c-2.7,1.8-0.2,6.1,2.5,4.3c4.3-2.8,8-6.3,11.2-10.2c3.2-4.1,6.8-9.3,6.7-14.7C300,389.2,295,389.2,295.1,392.4z"></path><path class="st0" d="M272.2,422.2c2.9,5.3,8.3,8.7,14.4,9c1.4,0,2.5-1.1,2.5-2.5c0-1.4-1.1-2.5-2.5-2.5l-0.9-0.1
		c-0.5,0,0.4,0.1,0,0l-0.4-0.1c-0.6-0.1-1.2-0.3-1.8-0.5c-0.3-0.1-0.5-0.2-0.8-0.3s-0.3,0,0,0c-0.1,0-0.3-0.1-0.4-0.2
		c-0.5-0.3-1.1-0.6-1.6-0.9c-0.2-0.1-0.5-0.3-0.7-0.5c0,0-0.5-0.4-0.2-0.1s-0.1-0.1-0.2-0.1c-0.5-0.4-0.9-0.8-1.3-1.2l-0.6-0.7
		c-0.1-0.1-0.1-0.2-0.2-0.3c0.2,0.2,0.2,0.3,0.1,0.1s-0.1-0.1-0.2-0.2c-0.3-0.5-0.7-1-1-1.5c-0.7-1.2-2.2-1.6-3.4-0.9
		C271.9,419.5,271.5,421,272.2,422.2L272.2,422.2z"></path><path class="st0" d="M338,321.5c0.3,3,1.8,5.7,4.2,7.6c2.5,1.8,5.4,3.1,8.4,3.8c1.3,0.4,2.7-0.4,3.1-1.7c0.4-1.3-0.4-2.7-1.7-3.1
		c-1.2-0.3-2.4-0.7-3.6-1.1c-0.1,0-0.6-0.2-0.2-0.1s-0.2-0.1-0.2-0.1l-0.8-0.4c-0.5-0.3-1.1-0.6-1.6-1c-0.3-0.2,0,0,0.1,0.1
		c-0.1-0.1-0.2-0.2-0.4-0.3l-0.6-0.6c-0.2-0.2-0.4-0.4-0.5-0.6s0,0,0.1,0.1c0-0.1-0.2-0.2-0.2-0.4s-0.3-0.5-0.4-0.7l-0.2-0.4
		c-0.2-0.5,0.1,0.4,0,0.1s-0.2-0.5-0.2-0.8s0-0.3-0.1-0.4c-0.1-0.5,0,0.5,0,0c0-0.7-0.3-1.3-0.7-1.8c-1-1-2.6-1-3.5,0
		C338.2,320.2,338,320.8,338,321.5L338,321.5z"></path><path class="st0" d="M359.7,321c0.2,4.5,0.6,9.4-1.2,13.7c-1.7,4-5.1,5.9-8.8,7.7c-1.2,0.7-1.6,2.2-0.9,3.4
		c0.7,1.2,2.2,1.6,3.4,0.9c2.3-1,4.4-2.3,6.4-3.8c1.9-1.6,3.4-3.7,4.4-6c2.1-5,2-10.5,1.7-15.8C364.5,317.8,359.5,317.8,359.7,321
		L359.7,321z"></path><path class="st0" d="M338.8,352.2c0.1,0.2,0.2,0.4,0.2,0.5s0.1,0.2,0,0l0.1,0.3c0.2,0.4,0.3,0.8,0.5,1.2c0.3,0.8,0.6,1.5,0.9,2.3
		c0.7,1.8,1.6,3.5,2.8,5c2.2,2.7,5.9,4.5,9.4,3.5c1.3-0.4,2.1-1.7,1.7-3.1c-0.4-1.3-1.7-2.1-3.1-1.7l0,0l-0.5,0.1
		c-0.5,0.1,0.5,0,0,0H350h0.2c-0.3-0.1-0.6-0.1-0.9-0.2l-0.2-0.1c-0.3-0.1-0.2-0.1,0.1,0.1c-0.1,0-0.3-0.2-0.4-0.2
		c-0.3-0.2-0.6-0.3-0.8-0.5c-0.5-0.3,0.4,0.4-0.1,0l-0.4-0.4c-0.2-0.2-0.4-0.4-0.6-0.6l-0.2-0.3l0.2,0.2c-0.1-0.1-0.2-0.3-0.3-0.4
		c-0.4-0.6-0.8-1.2-1.1-1.9c-0.1-0.2-0.2-0.4-0.2-0.5c-0.2-0.4,0.1,0.2,0,0s-0.3-0.7-0.4-1c-0.6-1.6-1.2-3.2-1.9-4.7
		c-0.7-1.2-2.2-1.6-3.4-0.9c-1.2,0.7-1.6,2.2-0.9,3.4L338.8,352.2z"></path><path class="st0" d="M359.8,358.4c-1.4,3.3-3.3,6.5-5.6,9.3c-1.2,1.5-2.5,2.9-3.9,4.1c-0.6,0.5-1.3,1-2,1.3c-0.1,0.1-0.2,0.1,0,0
		l-0.2,0.1c-0.2,0.1-0.4,0.1-0.6,0.2s-0.6,0.1-0.3,0c-0.3,0-0.5,0-0.8,0c-1.4,0-2.5,1.1-2.5,2.5s1.1,2.5,2.5,2.5
		c4.7,0.3,8.5-3.7,11.3-7c2.9-3.5,5.3-7.5,7.1-11.7c0.4-1.3-0.4-2.7-1.8-3.1C361.5,356.3,360.2,357.1,359.8,358.4L359.8,358.4z"></path><path class="st0" d="M336.2,382.2c2.2,6.8,8,11.8,15,13c1.3,0.3,2.7-0.4,3.1-1.8c0.3-1.2-0.4-2.9-1.8-3.1c-0.7-0.1-1.4-0.3-2.1-0.5
		c-0.3-0.1-0.7-0.2-1-0.3l-0.5-0.2c-0.6-0.2,0.5,0.2-0.1,0c-0.7-0.3-1.3-0.6-1.9-1c-0.3-0.2-0.6-0.4-0.9-0.6c-0.1,0-0.6-0.5-0.1-0.1
		l-0.4-0.4c-0.5-0.4-1-0.9-1.5-1.5c-0.3-0.3-0.5-0.6-0.8-0.9c-0.4-0.5,0.3,0.4-0.1-0.1l-0.3-0.5c-0.4-0.6-0.7-1.2-1.1-1.8l-0.2-0.5
		c-0.3-0.6,0.2,0.5,0-0.1c-0.1-0.4-0.3-0.7-0.4-1.1c-0.4-1.3-1.7-2.1-3.1-1.7C336.6,379.6,335.8,381,336.2,382.2L336.2,382.2z"></path><path class="st0" d="M356.6,393.3c-0.7,1.6-1.6,3.2-2.7,4.6c-0.5,0.6,0.3-0.3-0.2,0.3l-0.4,0.5c-0.3,0.4-0.6,0.7-0.9,1
		c-0.6,0.7-1.3,1.3-2,1.9l-0.5,0.4c-0.1,0.1-0.4,0.3-0.2,0.1c-0.4,0.3-0.8,0.6-1.2,0.9c-0.7,0.5-1.5,1-2.3,1.4
		c-0.4,0.2-0.7,0.4-1.1,0.5c0,0-0.7,0.3-0.3,0.1l-0.6,0.2c-0.9,0.3-1.8,0.6-2.7,0.8c-1.3,0.4-2.1,1.7-1.7,3.1
		c0.4,1.3,1.7,2.1,3.1,1.7c7.9-2.1,14.5-7.6,17.9-15c0.7-1.2,0.3-2.7-0.9-3.4C358.8,391.7,357.3,392.1,356.6,393.3L356.6,393.3z"></path></g></svg>